<svg width="420" height="335">
<rect width="100%" height="100%" fill="white"/>
<line x1="0" y1="315" x2="55" y2="325" style="stroke:rgb(0,0,0);stroke-width:2"/>
<line x1="55" y1="325" x2="65" y2="270" style="stroke:rgb(0,0,0);stroke-width:2"/>
<line x1="65" y1="270" x2="10" y2="265" style="stroke:rgb(0,0,0);stroke-width:2"/>
<line x1="10" y1="265" x2="0" y2="315" style="stroke:rgb(0,0,0);stroke-width:2"/>
<line x1="10" y1="265" x2="40" y2="215" style="stroke:rgb(0,0,0);stroke-width:2"/>
<line x1="40" y1="215" x2="65" y2="270" style="stroke:rgb(0,0,0);stroke-width:2"/>
<line x1="40" y1="215" x2="70" y2="145" style="stroke:rgb(0,0,0);stroke-width:2"/>
<line x1="70" y1="145" x2="100" y2="175" style="stroke:rgb(0,0,0);stroke-width:2"/>
<line x1="100" y1="175" x2="80" y2="105" style="stroke:rgb(0,0,0);stroke-width:2"/>
<line x1="80" y1="105" x2="70" y2="145" style="stroke:rgb(0,0,0);stroke-width:2"/>
<line x1="80" y1="105" x2="125" y2="100" style="stroke:rgb(0,0,0);stroke-width:2"/>
<line x1="125" y1="100" x2="135" y2="140" style="stroke:rgb(0,0,0);stroke-width:2"/>
<line x1="135" y1="140" x2="100" y2="175" style="stroke:rgb(0,0,0);stroke-width:2"/>
<line x1="125" y1="100" x2="240" y2="105" style="stroke:rgb(0,0,0);stroke-width:2"/>
<line x1="240" y1="105" x2="240" y2="175" style="stroke:rgb(0,0,0);stroke-width:2"/>
<line x1="240" y1="175" x2="100" y2="175" style="stroke:rgb(0,0,0);stroke-width:2"/>
<line x1="100" y1="175" x2="115" y2="245" style="stroke:rgb(0,0,0);stroke-width:2"/>
<line x1="115" y1="245" x2="225" y2="245" style="stroke:rgb(0,0,0);stroke-width:2"/>
<line x1="225" y1="245" x2="240" y2="175" style="stroke:rgb(0,0,0);stroke-width:2"/>
<line x1="115" y1="245" x2="110" y2="290" style="stroke:rgb(0,0,0);stroke-width:2"/>
<line x1="110" y1="290" x2="145" y2="270" style="stroke:rgb(0,0,0);stroke-width:2"/>
<line x1="145" y1="270" x2="115" y2="245" style="stroke:rgb(0,0,0);stroke-width:2"/>
<line x1="225" y1="245" x2="200" y2="275" style="stroke:rgb(0,0,0);stroke-width:2"/>
<line x1="200" y1="275" x2="230" y2="285" style="stroke:rgb(0,0,0);stroke-width:2"/>
<line x1="230" y1="285" x2="225" y2="245" style="stroke:rgb(0,0,0);stroke-width:2"/>
<line x1="145" y1="270" x2="135" y2="300" style="stroke:rgb(0,0,0);stroke-width:2"/>
<line x1="135" y1="300" x2="110" y2="290" style="stroke:rgb(0,0,0);stroke-width:2"/>
<line x1="200" y1="275" x2="205" y2="300" style="stroke:rgb(0,0,0);stroke-width:2"/>
<line x1="205" y1="300" x2="230" y2="285" style="stroke:rgb(0,0,0);stroke-width:2"/>
<line x1="135" y1="300" x2="155" y2="305" style="stroke:rgb(0,0,0);stroke-width:2"/>
<line x1="205" y1="300" x2="190" y2="305" style="stroke:rgb(0,0,0);stroke-width:2"/>
<line x1="155" y1="305" x2="160" y2="280" style="stroke:rgb(0,0,0);stroke-width:2"/>
<line x1="160" y1="280" x2="185" y2="280" style="stroke:rgb(0,0,0);stroke-width:2"/>
<line x1="185" y1="280" x2="190" y2="305" style="stroke:rgb(0,0,0);stroke-width:2"/>
<line x1="190" y1="305" x2="185" y2="335" style="stroke:rgb(0,0,0);stroke-width:2"/>
<line x1="185" y1="335" x2="160" y2="335" style="stroke:rgb(0,0,0);stroke-width:2"/>
<line x1="160" y1="335" x2="155" y2="305" style="stroke:rgb(0,0,0);stroke-width:2"/>
<line x1="240" y1="175" x2="265" y2="160" style="stroke:rgb(0,0,0);stroke-width:2"/>
<line x1="265" y1="160" x2="250" y2="145" style="stroke:rgb(0,0,0);stroke-width:2"/>
<line x1="250" y1="145" x2="265" y2="130" style="stroke:rgb(0,0,0);stroke-width:2"/>
<line x1="265" y1="130" x2="240" y2="105" style="stroke:rgb(0,0,0);stroke-width:2"/>
<line x1="265" y1="130" x2="345" y2="90" style="stroke:rgb(0,0,0);stroke-width:2"/>
<line x1="345" y1="90" x2="370" y2="45" style="stroke:rgb(0,0,0);stroke-width:2"/>
<line x1="370" y1="45" x2="370" y2="90" style="stroke:rgb(0,0,0);stroke-width:2"/>
<line x1="370" y1="90" x2="345" y2="90" style="stroke:rgb(0,0,0);stroke-width:2"/>
<line x1="370" y1="90" x2="395" y2="90" style="stroke:rgb(0,0,0);stroke-width:2"/>
<line x1="395" y1="90" x2="395" y2="45" style="stroke:rgb(0,0,0);stroke-width:2"/>
<line x1="395" y1="45" x2="370" y2="45" style="stroke:rgb(0,0,0);stroke-width:2"/>
<line x1="350" y1="0" x2="350" y2="15" style="stroke:rgb(0,0,0);stroke-width:2"/>
<line x1="350" y1="15" x2="420" y2="15" style="stroke:rgb(0,0,0);stroke-width:2"/>
<line x1="420" y1="15" x2="420" y2="0" style="stroke:rgb(0,0,0);stroke-width:2"/>
<line x1="420" y1="0" x2="350" y2="0" style="stroke:rgb(0,0,0);stroke-width:2"/>
<line x1="350" y1="15" x2="370" y2="45" style="stroke:rgb(0,0,0);stroke-width:2"/>
<line x1="265" y1="160" x2="305" y2="200" style="stroke:rgb(0,0,0);stroke-width:2"/>
<line x1="305" y1="200" x2="340" y2="215" style="stroke:rgb(0,0,0);stroke-width:2"/>
<line x1="340" y1="215" x2="310" y2="235" style="stroke:rgb(0,0,0);stroke-width:2"/>
<line x1="310" y1="235" x2="305" y2="200" style="stroke:rgb(0,0,0);stroke-width:2"/>
<line x1="310" y1="235" x2="325" y2="250" style="stroke:rgb(0,0,0);stroke-width:2"/>
<line x1="325" y1="250" x2="365" y2="230" style="stroke:rgb(0,0,0);stroke-width:2"/>
<line x1="365" y1="230" x2="340" y2="215" style="stroke:rgb(0,0,0);stroke-width:2"/>
<line x1="340" y1="215" x2="370" y2="170" style="stroke:rgb(0,0,0);stroke-width:2"/>
<line x1="370" y1="170" x2="405" y2="210" style="stroke:rgb(0,0,0);stroke-width:2"/>
<line x1="405" y1="210" x2="365" y2="230" style="stroke:rgb(0,0,0);stroke-width:2"/>
<line x1="125" y1="100" x2="175" y2="95" style="stroke:rgb(0,0,0);stroke-width:2"/>
<line x1="175" y1="95" x2="240" y2="105" style="stroke:rgb(0,0,0);stroke-width:2"/>
<line x1="175" y1="95" x2="210" y2="85" style="stroke:rgb(0,0,0);stroke-width:2"/>
<line x1="210" y1="85" x2="175" y2="55" style="stroke:rgb(0,0,0);stroke-width:2"/>
<line x1="175" y1="55" x2="160" y2="55" style="stroke:rgb(0,0,0);stroke-width:2"/>
<line x1="160" y1="55" x2="140" y2="90" style="stroke:rgb(0,0,0);stroke-width:2"/>
<line x1="140" y1="90" x2="175" y2="95" style="stroke:rgb(0,0,0);stroke-width:2"/>
<line x1="160" y1="55" x2="150" y2="40" style="stroke:rgb(0,0,0);stroke-width:2"/>
<line x1="150" y1="40" x2="105" y2="65" style="stroke:rgb(0,0,0);stroke-width:2"/>
<line x1="105" y1="65" x2="140" y2="90" style="stroke:rgb(0,0,0);stroke-width:2"/>
<line x1="150" y1="40" x2="135" y2="25" style="stroke:rgb(0,0,0);stroke-width:2"/>
<line x1="135" y1="25" x2="100" y2="45" style="stroke:rgb(0,0,0);stroke-width:2"/>
<line x1="100" y1="45" x2="105" y2="65" style="stroke:rgb(0,0,0);stroke-width:2"/>
<line x1="175" y1="55" x2="180" y2="30" style="stroke:rgb(0,0,0);stroke-width:2"/>
<line x1="180" y1="30" x2="230" y2="40" style="stroke:rgb(0,0,0);stroke-width:2"/>
<line x1="230" y1="40" x2="210" y2="85" style="stroke:rgb(0,0,0);stroke-width:2"/>
<line x1="230" y1="40" x2="230" y2="20" style="stroke:rgb(0,0,0);stroke-width:2"/>
<line x1="230" y1="20" x2="195" y2="10" style="stroke:rgb(0,0,0);stroke-width:2"/>
<line x1="195" y1="10" x2="180" y2="30" style="stroke:rgb(0,0,0);stroke-width:2"/>
</svg>
