<svg width="290" height="280">
<rect width="100%" height="100%" fill="white"/>
<line x1="290" y1="0" x2="245" y2="80" style="stroke:rgb(0,0,0);stroke-width:2"/>
<line x1="245" y1="80" x2="290" y2="95" style="stroke:rgb(0,0,0);stroke-width:2"/>
<line x1="290" y1="95" x2="270" y2="135" style="stroke:rgb(0,0,0);stroke-width:2"/>
<line x1="270" y1="135" x2="275" y2="185" style="stroke:rgb(0,0,0);stroke-width:2"/>
<line x1="275" y1="185" x2="285" y2="230" style="stroke:rgb(0,0,0);stroke-width:2"/>
<line x1="285" y1="230" x2="290" y2="280" style="stroke:rgb(0,0,0);stroke-width:2"/>
<line x1="290" y1="280" x2="0" y2="175" style="stroke:rgb(0,0,0);stroke-width:2"/>
<line x1="0" y1="175" x2="35" y2="140" style="stroke:rgb(0,0,0);stroke-width:2"/>
<line x1="35" y1="140" x2="90" y2="95" style="stroke:rgb(0,0,0);stroke-width:2"/>
<line x1="90" y1="95" x2="0" y2="90" style="stroke:rgb(0,0,0);stroke-width:2"/>
<line x1="0" y1="90" x2="5" y2="40" style="stroke:rgb(0,0,0);stroke-width:2"/>
<line x1="5" y1="40" x2="90" y2="40" style="stroke:rgb(0,0,0);stroke-width:2"/>
<line x1="90" y1="40" x2="105" y2="0" style="stroke:rgb(0,0,0);stroke-width:2"/>
<line x1="105" y1="0" x2="290" y2="0" style="stroke:rgb(0,0,0);stroke-width:2"/>
</svg>
