<svg width="355" height="300">
<rect width="100%" height="100%" fill="white"/>
<line x1="15" y1="70" x2="0" y2="25" style="stroke:rgb(0,0,0);stroke-width:2"/>
<line x1="0" y1="25" x2="10" y2="0" style="stroke:rgb(0,0,0);stroke-width:2"/>
<line x1="10" y1="0" x2="50" y2="40" style="stroke:rgb(0,0,0);stroke-width:2"/>
<line x1="50" y1="40" x2="15" y2="70" style="stroke:rgb(0,0,0);stroke-width:2"/>
<line x1="50" y1="40" x2="95" y2="45" style="stroke:rgb(0,0,0);stroke-width:2"/>
<line x1="95" y1="45" x2="135" y2="20" style="stroke:rgb(0,0,0);stroke-width:2"/>
<line x1="135" y1="20" x2="145" y2="40" style="stroke:rgb(0,0,0);stroke-width:2"/>
<line x1="145" y1="40" x2="110" y2="80" style="stroke:rgb(0,0,0);stroke-width:2"/>
<line x1="110" y1="80" x2="95" y2="45" style="stroke:rgb(0,0,0);stroke-width:2"/>
<line x1="15" y1="70" x2="25" y2="140" style="stroke:rgb(0,0,0);stroke-width:2"/>
<line x1="25" y1="140" x2="70" y2="155" style="stroke:rgb(0,0,0);stroke-width:2"/>
<line x1="70" y1="155" x2="135" y2="105" style="stroke:rgb(0,0,0);stroke-width:2"/>
<line x1="135" y1="105" x2="110" y2="80" style="stroke:rgb(0,0,0);stroke-width:2"/>
<line x1="85" y1="240" x2="85" y2="265" style="stroke:rgb(0,0,0);stroke-width:2"/>
<line x1="85" y1="265" x2="65" y2="270" style="stroke:rgb(0,0,0);stroke-width:2"/>
<line x1="65" y1="270" x2="65" y2="280" style="stroke:rgb(0,0,0);stroke-width:2"/>
<line x1="65" y1="280" x2="100" y2="280" style="stroke:rgb(0,0,0);stroke-width:2"/>
<line x1="100" y1="280" x2="120" y2="245" style="stroke:rgb(0,0,0);stroke-width:2"/>
<line x1="120" y1="245" x2="125" y2="270" style="stroke:rgb(0,0,0);stroke-width:2"/>
<line x1="125" y1="270" x2="105" y2="290" style="stroke:rgb(0,0,0);stroke-width:2"/>
<line x1="105" y1="290" x2="105" y2="300" style="stroke:rgb(0,0,0);stroke-width:2"/>
<line x1="105" y1="300" x2="135" y2="300" style="stroke:rgb(0,0,0);stroke-width:2"/>
<line x1="135" y1="300" x2="155" y2="245" style="stroke:rgb(0,0,0);stroke-width:2"/>
<line x1="155" y1="245" x2="120" y2="245" style="stroke:rgb(0,0,0);stroke-width:2"/>
<line x1="120" y1="245" x2="85" y2="240" style="stroke:rgb(0,0,0);stroke-width:2"/>
<line x1="25" y1="140" x2="50" y2="220" style="stroke:rgb(0,0,0);stroke-width:2"/>
<line x1="50" y1="220" x2="85" y2="240" style="stroke:rgb(0,0,0);stroke-width:2"/>
<line x1="155" y1="245" x2="135" y2="105" style="stroke:rgb(0,0,0);stroke-width:2"/>
<line x1="135" y1="105" x2="195" y2="110" style="stroke:rgb(0,0,0);stroke-width:2"/>
<line x1="195" y1="110" x2="270" y2="95" style="stroke:rgb(0,0,0);stroke-width:2"/>
<line x1="270" y1="95" x2="255" y2="215" style="stroke:rgb(0,0,0);stroke-width:2"/>
<line x1="255" y1="215" x2="155" y2="245" style="stroke:rgb(0,0,0);stroke-width:2"/>
<line x1="275" y1="220" x2="270" y2="240" style="stroke:rgb(0,0,0);stroke-width:2"/>
<line x1="270" y1="240" x2="250" y2="245" style="stroke:rgb(0,0,0);stroke-width:2"/>
<line x1="250" y1="245" x2="250" y2="255" style="stroke:rgb(0,0,0);stroke-width:2"/>
<line x1="250" y1="255" x2="280" y2="255" style="stroke:rgb(0,0,0);stroke-width:2"/>
<line x1="280" y1="255" x2="295" y2="230" style="stroke:rgb(0,0,0);stroke-width:2"/>
<line x1="295" y1="230" x2="285" y2="265" style="stroke:rgb(0,0,0);stroke-width:2"/>
<line x1="285" y1="265" x2="270" y2="270" style="stroke:rgb(0,0,0);stroke-width:2"/>
<line x1="270" y1="270" x2="270" y2="280" style="stroke:rgb(0,0,0);stroke-width:2"/>
<line x1="270" y1="280" x2="300" y2="280" style="stroke:rgb(0,0,0);stroke-width:2"/>
<line x1="300" y1="280" x2="315" y2="230" style="stroke:rgb(0,0,0);stroke-width:2"/>
<line x1="315" y1="230" x2="295" y2="230" style="stroke:rgb(0,0,0);stroke-width:2"/>
<line x1="295" y1="230" x2="275" y2="220" style="stroke:rgb(0,0,0);stroke-width:2"/>
<line x1="275" y1="220" x2="255" y2="215" style="stroke:rgb(0,0,0);stroke-width:2"/>
<line x1="315" y1="230" x2="355" y2="150" style="stroke:rgb(0,0,0);stroke-width:2"/>
<line x1="355" y1="150" x2="325" y2="105" style="stroke:rgb(0,0,0);stroke-width:2"/>
<line x1="325" y1="105" x2="270" y2="95" style="stroke:rgb(0,0,0);stroke-width:2"/>
</svg>
