<svg width="350" height="275">
<rect width="100%" height="100%" fill="white"/>
<line x1="50" y1="275" x2="50" y2="100" style="stroke:rgb(0,0,0);stroke-width:2"/>
<line x1="50" y1="100" x2="0" y2="100" style="stroke:rgb(0,0,0);stroke-width:2"/>
<line x1="0" y1="100" x2="0" y2="0" style="stroke:rgb(0,0,0);stroke-width:2"/>
<line x1="0" y1="0" x2="50" y2="0" style="stroke:rgb(0,0,0);stroke-width:2"/>
<line x1="50" y1="0" x2="50" y2="25" style="stroke:rgb(0,0,0);stroke-width:2"/>
<line x1="50" y1="25" x2="100" y2="25" style="stroke:rgb(0,0,0);stroke-width:2"/>
<line x1="100" y1="25" x2="100" y2="0" style="stroke:rgb(0,0,0);stroke-width:2"/>
<line x1="100" y1="0" x2="150" y2="0" style="stroke:rgb(0,0,0);stroke-width:2"/>
<line x1="150" y1="0" x2="150" y2="25" style="stroke:rgb(0,0,0);stroke-width:2"/>
<line x1="150" y1="25" x2="200" y2="25" style="stroke:rgb(0,0,0);stroke-width:2"/>
<line x1="200" y1="25" x2="200" y2="0" style="stroke:rgb(0,0,0);stroke-width:2"/>
<line x1="200" y1="0" x2="250" y2="0" style="stroke:rgb(0,0,0);stroke-width:2"/>
<line x1="250" y1="0" x2="250" y2="25" style="stroke:rgb(0,0,0);stroke-width:2"/>
<line x1="250" y1="25" x2="300" y2="25" style="stroke:rgb(0,0,0);stroke-width:2"/>
<line x1="300" y1="25" x2="300" y2="0" style="stroke:rgb(0,0,0);stroke-width:2"/>
<line x1="300" y1="0" x2="350" y2="0" style="stroke:rgb(0,0,0);stroke-width:2"/>
<line x1="350" y1="0" x2="350" y2="100" style="stroke:rgb(0,0,0);stroke-width:2"/>
<line x1="350" y1="100" x2="300" y2="100" style="stroke:rgb(0,0,0);stroke-width:2"/>
<line x1="300" y1="100" x2="300" y2="275" style="stroke:rgb(0,0,0);stroke-width:2"/>
<line x1="300" y1="275" x2="50" y2="275" style="stroke:rgb(0,0,0);stroke-width:2"/>
</svg>
