<svg width="200" height="200">
<rect width="100%" height="100%" fill="white"/>
<line x1="140" y1="0" x2="155" y2="25" style="stroke:rgb(0,0,0);stroke-width:2"/>
<line x1="155" y1="25" x2="200" y2="30" style="stroke:rgb(0,0,0);stroke-width:2"/>
<line x1="200" y1="30" x2="200" y2="80" style="stroke:rgb(0,0,0);stroke-width:2"/>
<line x1="200" y1="80" x2="175" y2="95" style="stroke:rgb(0,0,0);stroke-width:2"/>
<line x1="175" y1="95" x2="120" y2="70" style="stroke:rgb(0,0,0);stroke-width:2"/>
<line x1="120" y1="70" x2="125" y2="105" style="stroke:rgb(0,0,0);stroke-width:2"/>
<line x1="125" y1="105" x2="125" y2="135" style="stroke:rgb(0,0,0);stroke-width:2"/>
<line x1="125" y1="135" x2="130" y2="170" style="stroke:rgb(0,0,0);stroke-width:2"/>
<line x1="130" y1="170" x2="140" y2="200" style="stroke:rgb(0,0,0);stroke-width:2"/>
<line x1="140" y1="200" x2="85" y2="195" style="stroke:rgb(0,0,0);stroke-width:2"/>
<line x1="85" y1="195" x2="0" y2="200" style="stroke:rgb(0,0,0);stroke-width:2"/>
<line x1="0" y1="200" x2="50" y2="165" style="stroke:rgb(0,0,0);stroke-width:2"/>
<line x1="50" y1="165" x2="90" y2="140" style="stroke:rgb(0,0,0);stroke-width:2"/>
<line x1="90" y1="140" x2="50" y2="120" style="stroke:rgb(0,0,0);stroke-width:2"/>
<line x1="50" y1="120" x2="10" y2="120" style="stroke:rgb(0,0,0);stroke-width:2"/>
<line x1="10" y1="120" x2="35" y2="75" style="stroke:rgb(0,0,0);stroke-width:2"/>
<line x1="35" y1="75" x2="0" y2="65" style="stroke:rgb(0,0,0);stroke-width:2"/>
<line x1="0" y1="65" x2="0" y2="0" style="stroke:rgb(0,0,0);stroke-width:2"/>
<line x1="0" y1="0" x2="50" y2="0" style="stroke:rgb(0,0,0);stroke-width:2"/>
<line x1="50" y1="0" x2="85" y2="5" style="stroke:rgb(0,0,0);stroke-width:2"/>
<line x1="85" y1="5" x2="140" y2="0" style="stroke:rgb(0,0,0);stroke-width:2"/>
</svg>
