<svg width="200" height="200">
<rect width="100%" height="100%" fill="white"/>
<line x1="0" y1="0" x2="70" y2="0" style="stroke:rgb(0,0,0);stroke-width:2"/>
<line x1="70" y1="0" x2="80" y2="35" style="stroke:rgb(0,0,0);stroke-width:2"/>
<line x1="80" y1="35" x2="130" y2="30" style="stroke:rgb(0,0,0);stroke-width:2"/>
<line x1="130" y1="30" x2="100" y2="0" style="stroke:rgb(0,0,0);stroke-width:2"/>
<line x1="100" y1="0" x2="155" y2="0" style="stroke:rgb(0,0,0);stroke-width:2"/>
<line x1="155" y1="0" x2="200" y2="35" style="stroke:rgb(0,0,0);stroke-width:2"/>
<line x1="200" y1="35" x2="200" y2="85" style="stroke:rgb(0,0,0);stroke-width:2"/>
<line x1="200" y1="85" x2="175" y2="105" style="stroke:rgb(0,0,0);stroke-width:2"/>
<line x1="175" y1="105" x2="145" y2="70" style="stroke:rgb(0,0,0);stroke-width:2"/>
<line x1="145" y1="70" x2="100" y2="80" style="stroke:rgb(0,0,0);stroke-width:2"/>
<line x1="100" y1="80" x2="90" y2="110" style="stroke:rgb(0,0,0);stroke-width:2"/>
<line x1="90" y1="110" x2="80" y2="145" style="stroke:rgb(0,0,0);stroke-width:2"/>
<line x1="80" y1="145" x2="155" y2="135" style="stroke:rgb(0,0,0);stroke-width:2"/>
<line x1="155" y1="135" x2="200" y2="135" style="stroke:rgb(0,0,0);stroke-width:2"/>
<line x1="200" y1="135" x2="200" y2="170" style="stroke:rgb(0,0,0);stroke-width:2"/>
<line x1="200" y1="170" x2="140" y2="200" style="stroke:rgb(0,0,0);stroke-width:2"/>
<line x1="140" y1="200" x2="125" y2="170" style="stroke:rgb(0,0,0);stroke-width:2"/>
<line x1="125" y1="170" x2="85" y2="180" style="stroke:rgb(0,0,0);stroke-width:2"/>
<line x1="85" y1="180" x2="40" y2="200" style="stroke:rgb(0,0,0);stroke-width:2"/>
<line x1="40" y1="200" x2="55" y2="110" style="stroke:rgb(0,0,0);stroke-width:2"/>
<line x1="55" y1="110" x2="0" y2="160" style="stroke:rgb(0,0,0);stroke-width:2"/>
<line x1="0" y1="160" x2="0" y2="115" style="stroke:rgb(0,0,0);stroke-width:2"/>
<line x1="0" y1="115" x2="5" y2="40" style="stroke:rgb(0,0,0);stroke-width:2"/>
<line x1="5" y1="40" x2="0" y2="0" style="stroke:rgb(0,0,0);stroke-width:2"/>
</svg>
