<svg width="200" height="205">
<rect width="100%" height="100%" fill="white"/>
<line x1="15" y1="0" x2="45" y2="0" style="stroke:rgb(0,0,0);stroke-width:2"/>
<line x1="45" y1="0" x2="45" y2="40" style="stroke:rgb(0,0,0);stroke-width:2"/>
<line x1="45" y1="40" x2="60" y2="80" style="stroke:rgb(0,0,0);stroke-width:2"/>
<line x1="60" y1="80" x2="90" y2="20" style="stroke:rgb(0,0,0);stroke-width:2"/>
<line x1="90" y1="20" x2="95" y2="90" style="stroke:rgb(0,0,0);stroke-width:2"/>
<line x1="95" y1="90" x2="140" y2="30" style="stroke:rgb(0,0,0);stroke-width:2"/>
<line x1="140" y1="30" x2="160" y2="0" style="stroke:rgb(0,0,0);stroke-width:2"/>
<line x1="160" y1="0" x2="200" y2="0" style="stroke:rgb(0,0,0);stroke-width:2"/>
<line x1="200" y1="0" x2="180" y2="35" style="stroke:rgb(0,0,0);stroke-width:2"/>
<line x1="180" y1="35" x2="185" y2="70" style="stroke:rgb(0,0,0);stroke-width:2"/>
<line x1="185" y1="70" x2="175" y2="110" style="stroke:rgb(0,0,0);stroke-width:2"/>
<line x1="175" y1="110" x2="125" y2="105" style="stroke:rgb(0,0,0);stroke-width:2"/>
<line x1="125" y1="105" x2="135" y2="135" style="stroke:rgb(0,0,0);stroke-width:2"/>
<line x1="135" y1="135" x2="150" y2="170" style="stroke:rgb(0,0,0);stroke-width:2"/>
<line x1="150" y1="170" x2="130" y2="205" style="stroke:rgb(0,0,0);stroke-width:2"/>
<line x1="130" y1="205" x2="90" y2="160" style="stroke:rgb(0,0,0);stroke-width:2"/>
<line x1="90" y1="160" x2="85" y2="200" style="stroke:rgb(0,0,0);stroke-width:2"/>
<line x1="85" y1="200" x2="40" y2="205" style="stroke:rgb(0,0,0);stroke-width:2"/>
<line x1="40" y1="205" x2="0" y2="205" style="stroke:rgb(0,0,0);stroke-width:2"/>
<line x1="0" y1="205" x2="15" y2="165" style="stroke:rgb(0,0,0);stroke-width:2"/>
<line x1="15" y1="165" x2="0" y2="135" style="stroke:rgb(0,0,0);stroke-width:2"/>
<line x1="0" y1="135" x2="30" y2="130" style="stroke:rgb(0,0,0);stroke-width:2"/>
<line x1="30" y1="130" x2="30" y2="100" style="stroke:rgb(0,0,0);stroke-width:2"/>
<line x1="30" y1="100" x2="0" y2="55" style="stroke:rgb(0,0,0);stroke-width:2"/>
<line x1="0" y1="55" x2="0" y2="25" style="stroke:rgb(0,0,0);stroke-width:2"/>
<line x1="0" y1="25" x2="15" y2="0" style="stroke:rgb(0,0,0);stroke-width:2"/>
</svg>
