<svg width="450" height="525">
<rect width="100%" height="100%" fill="white"/>
<line x1="175" y1="325" x2="100" y2="350" style="stroke:rgb(0,0,0);stroke-width:2"/>
<line x1="100" y1="350" x2="100" y2="300" style="stroke:rgb(0,0,0);stroke-width:2"/>
<line x1="100" y1="300" x2="0" y2="250" style="stroke:rgb(0,0,0);stroke-width:2"/>
<line x1="0" y1="250" x2="75" y2="200" style="stroke:rgb(0,0,0);stroke-width:2"/>
<line x1="75" y1="200" x2="50" y2="125" style="stroke:rgb(0,0,0);stroke-width:2"/>
<line x1="50" y1="125" x2="75" y2="125" style="stroke:rgb(0,0,0);stroke-width:2"/>
<line x1="75" y1="125" x2="75" y2="50" style="stroke:rgb(0,0,0);stroke-width:2"/>
<line x1="75" y1="50" x2="150" y2="100" style="stroke:rgb(0,0,0);stroke-width:2"/>
<line x1="150" y1="100" x2="200" y2="150" style="stroke:rgb(0,0,0);stroke-width:2"/>
<line x1="200" y1="150" x2="200" y2="50" style="stroke:rgb(0,0,0);stroke-width:2"/>
<line x1="200" y1="50" x2="250" y2="75" style="stroke:rgb(0,0,0);stroke-width:2"/>
<line x1="250" y1="75" x2="325" y2="0" style="stroke:rgb(0,0,0);stroke-width:2"/>
<line x1="325" y1="0" x2="350" y2="100" style="stroke:rgb(0,0,0);stroke-width:2"/>
<line x1="350" y1="100" x2="375" y2="100" style="stroke:rgb(0,0,0);stroke-width:2"/>
<line x1="375" y1="100" x2="325" y2="200" style="stroke:rgb(0,0,0);stroke-width:2"/>
<line x1="325" y1="200" x2="400" y2="200" style="stroke:rgb(0,0,0);stroke-width:2"/>
<line x1="400" y1="200" x2="450" y2="225" style="stroke:rgb(0,0,0);stroke-width:2"/>
<line x1="450" y1="225" x2="425" y2="300" style="stroke:rgb(0,0,0);stroke-width:2"/>
<line x1="425" y1="300" x2="350" y2="325" style="stroke:rgb(0,0,0);stroke-width:2"/>
<line x1="350" y1="325" x2="375" y2="400" style="stroke:rgb(0,0,0);stroke-width:2"/>
<line x1="375" y1="400" x2="250" y2="375" style="stroke:rgb(0,0,0);stroke-width:2"/>
<line x1="250" y1="375" x2="225" y2="400" style="stroke:rgb(0,0,0);stroke-width:2"/>
<line x1="225" y1="400" x2="200" y2="325" style="stroke:rgb(0,0,0);stroke-width:2"/>
<line x1="200" y1="325" x2="175" y2="525" style="stroke:rgb(0,0,0);stroke-width:2"/>
<line x1="175" y1="525" x2="150" y2="525" style="stroke:rgb(0,0,0);stroke-width:2"/>
<line x1="150" y1="525" x2="175" y2="325" style="stroke:rgb(0,0,0);stroke-width:2"/>
</svg>
