<svg width="220" height="245">
<rect width="100%" height="100%" fill="white"/>
<line x1="70" y1="50" x2="105" y2="30" style="stroke:rgb(0,0,0);stroke-width:2"/>
<line x1="105" y1="30" x2="140" y2="5" style="stroke:rgb(0,0,0);stroke-width:2"/>
<line x1="140" y1="5" x2="180" y2="0" style="stroke:rgb(0,0,0);stroke-width:2"/>
<line x1="180" y1="0" x2="220" y2="0" style="stroke:rgb(0,0,0);stroke-width:2"/>
<line x1="220" y1="0" x2="215" y2="40" style="stroke:rgb(0,0,0);stroke-width:2"/>
<line x1="215" y1="40" x2="220" y2="80" style="stroke:rgb(0,0,0);stroke-width:2"/>
<line x1="220" y1="80" x2="220" y2="120" style="stroke:rgb(0,0,0);stroke-width:2"/>
<line x1="220" y1="120" x2="195" y2="175" style="stroke:rgb(0,0,0);stroke-width:2"/>
<line x1="195" y1="175" x2="150" y2="200" style="stroke:rgb(0,0,0);stroke-width:2"/>
<line x1="150" y1="200" x2="195" y2="215" style="stroke:rgb(0,0,0);stroke-width:2"/>
<line x1="195" y1="215" x2="135" y2="245" style="stroke:rgb(0,0,0);stroke-width:2"/>
<line x1="135" y1="245" x2="100" y2="245" style="stroke:rgb(0,0,0);stroke-width:2"/>
<line x1="100" y1="245" x2="50" y2="215" style="stroke:rgb(0,0,0);stroke-width:2"/>
<line x1="50" y1="215" x2="10" y2="195" style="stroke:rgb(0,0,0);stroke-width:2"/>
<line x1="10" y1="195" x2="0" y2="160" style="stroke:rgb(0,0,0);stroke-width:2"/>
<line x1="0" y1="160" x2="0" y2="25" style="stroke:rgb(0,0,0);stroke-width:2"/>
<line x1="0" y1="25" x2="35" y2="60" style="stroke:rgb(0,0,0);stroke-width:2"/>
<line x1="35" y1="60" x2="70" y2="50" style="stroke:rgb(0,0,0);stroke-width:2"/>
</svg>
