<svg width="285" height="345">
<rect width="100%" height="100%" fill="white"/>
<line x1="160" y1="0" x2="285" y2="100" style="stroke:rgb(0,0,0);stroke-width:2"/>
<line x1="285" y1="100" x2="255" y2="135" style="stroke:rgb(0,0,0);stroke-width:2"/>
<line x1="255" y1="135" x2="230" y2="185" style="stroke:rgb(0,0,0);stroke-width:2"/>
<line x1="230" y1="185" x2="285" y2="195" style="stroke:rgb(0,0,0);stroke-width:2"/>
<line x1="285" y1="195" x2="280" y2="250" style="stroke:rgb(0,0,0);stroke-width:2"/>
<line x1="280" y1="250" x2="285" y2="330" style="stroke:rgb(0,0,0);stroke-width:2"/>
<line x1="285" y1="330" x2="220" y2="345" style="stroke:rgb(0,0,0);stroke-width:2"/>
<line x1="220" y1="345" x2="130" y2="345" style="stroke:rgb(0,0,0);stroke-width:2"/>
<line x1="130" y1="345" x2="175" y2="290" style="stroke:rgb(0,0,0);stroke-width:2"/>
<line x1="175" y1="290" x2="140" y2="230" style="stroke:rgb(0,0,0);stroke-width:2"/>
<line x1="140" y1="230" x2="85" y2="270" style="stroke:rgb(0,0,0);stroke-width:2"/>
<line x1="85" y1="270" x2="0" y2="285" style="stroke:rgb(0,0,0);stroke-width:2"/>
<line x1="0" y1="285" x2="10" y2="235" style="stroke:rgb(0,0,0);stroke-width:2"/>
<line x1="10" y1="235" x2="10" y2="185" style="stroke:rgb(0,0,0);stroke-width:2"/>
<line x1="10" y1="185" x2="40" y2="140" style="stroke:rgb(0,0,0);stroke-width:2"/>
<line x1="40" y1="140" x2="0" y2="90" style="stroke:rgb(0,0,0);stroke-width:2"/>
<line x1="0" y1="90" x2="0" y2="30" style="stroke:rgb(0,0,0);stroke-width:2"/>
<line x1="0" y1="30" x2="45" y2="30" style="stroke:rgb(0,0,0);stroke-width:2"/>
<line x1="45" y1="30" x2="100" y2="20" style="stroke:rgb(0,0,0);stroke-width:2"/>
<line x1="100" y1="20" x2="160" y2="0" style="stroke:rgb(0,0,0);stroke-width:2"/>
</svg>
