<svg width="180" height="355">
<rect width="100%" height="100%" fill="white"/>
<line x1="0" y1="95" x2="5" y2="40" style="stroke:rgb(0,0,0);stroke-width:2"/>
<line x1="5" y1="40" x2="0" y2="0" style="stroke:rgb(0,0,0);stroke-width:2"/>
<line x1="0" y1="0" x2="120" y2="0" style="stroke:rgb(0,0,0);stroke-width:2"/>
<line x1="120" y1="0" x2="130" y2="60" style="stroke:rgb(0,0,0);stroke-width:2"/>
<line x1="130" y1="60" x2="180" y2="20" style="stroke:rgb(0,0,0);stroke-width:2"/>
<line x1="180" y1="20" x2="165" y2="85" style="stroke:rgb(0,0,0);stroke-width:2"/>
<line x1="165" y1="85" x2="180" y2="125" style="stroke:rgb(0,0,0);stroke-width:2"/>
<line x1="180" y1="125" x2="180" y2="215" style="stroke:rgb(0,0,0);stroke-width:2"/>
<line x1="180" y1="215" x2="170" y2="255" style="stroke:rgb(0,0,0);stroke-width:2"/>
<line x1="170" y1="255" x2="180" y2="300" style="stroke:rgb(0,0,0);stroke-width:2"/>
<line x1="180" y1="300" x2="170" y2="355" style="stroke:rgb(0,0,0);stroke-width:2"/>
<line x1="170" y1="355" x2="135" y2="305" style="stroke:rgb(0,0,0);stroke-width:2"/>
<line x1="135" y1="305" x2="100" y2="320" style="stroke:rgb(0,0,0);stroke-width:2"/>
<line x1="100" y1="320" x2="60" y2="355" style="stroke:rgb(0,0,0);stroke-width:2"/>
<line x1="60" y1="355" x2="0" y2="355" style="stroke:rgb(0,0,0);stroke-width:2"/>
<line x1="0" y1="355" x2="0" y2="315" style="stroke:rgb(0,0,0);stroke-width:2"/>
<line x1="0" y1="315" x2="5" y2="235" style="stroke:rgb(0,0,0);stroke-width:2"/>
<line x1="5" y1="235" x2="0" y2="185" style="stroke:rgb(0,0,0);stroke-width:2"/>
<line x1="0" y1="185" x2="10" y2="140" style="stroke:rgb(0,0,0);stroke-width:2"/>
<line x1="10" y1="140" x2="0" y2="95" style="stroke:rgb(0,0,0);stroke-width:2"/>
</svg>
