<svg width="180" height="190">
<rect width="100%" height="100%" fill="white"/>
<line x1="115" y1="0" x2="160" y2="10" style="stroke:rgb(0,0,0);stroke-width:2"/>
<line x1="160" y1="10" x2="120" y2="30" style="stroke:rgb(0,0,0);stroke-width:2"/>
<line x1="120" y1="30" x2="155" y2="45" style="stroke:rgb(0,0,0);stroke-width:2"/>
<line x1="155" y1="45" x2="180" y2="60" style="stroke:rgb(0,0,0);stroke-width:2"/>
<line x1="180" y1="60" x2="180" y2="130" style="stroke:rgb(0,0,0);stroke-width:2"/>
<line x1="180" y1="130" x2="145" y2="90" style="stroke:rgb(0,0,0);stroke-width:2"/>
<line x1="145" y1="90" x2="120" y2="110" style="stroke:rgb(0,0,0);stroke-width:2"/>
<line x1="120" y1="110" x2="105" y2="135" style="stroke:rgb(0,0,0);stroke-width:2"/>
<line x1="105" y1="135" x2="150" y2="160" style="stroke:rgb(0,0,0);stroke-width:2"/>
<line x1="150" y1="160" x2="90" y2="170" style="stroke:rgb(0,0,0);stroke-width:2"/>
<line x1="90" y1="170" x2="50" y2="190" style="stroke:rgb(0,0,0);stroke-width:2"/>
<line x1="50" y1="190" x2="60" y2="150" style="stroke:rgb(0,0,0);stroke-width:2"/>
<line x1="60" y1="150" x2="30" y2="140" style="stroke:rgb(0,0,0);stroke-width:2"/>
<line x1="30" y1="140" x2="0" y2="160" style="stroke:rgb(0,0,0);stroke-width:2"/>
<line x1="0" y1="160" x2="0" y2="100" style="stroke:rgb(0,0,0);stroke-width:2"/>
<line x1="0" y1="100" x2="40" y2="110" style="stroke:rgb(0,0,0);stroke-width:2"/>
<line x1="40" y1="110" x2="25" y2="70" style="stroke:rgb(0,0,0);stroke-width:2"/>
<line x1="25" y1="70" x2="5" y2="30" style="stroke:rgb(0,0,0);stroke-width:2"/>
<line x1="5" y1="30" x2="0" y2="0" style="stroke:rgb(0,0,0);stroke-width:2"/>
<line x1="0" y1="0" x2="30" y2="0" style="stroke:rgb(0,0,0);stroke-width:2"/>
<line x1="30" y1="0" x2="60" y2="15" style="stroke:rgb(0,0,0);stroke-width:2"/>
<line x1="60" y1="15" x2="85" y2="0" style="stroke:rgb(0,0,0);stroke-width:2"/>
<line x1="85" y1="0" x2="115" y2="0" style="stroke:rgb(0,0,0);stroke-width:2"/>
</svg>
