<svg width="270" height="235">
<rect width="100%" height="100%" fill="white"/>
<line x1="270" y1="0" x2="270" y2="45" style="stroke:rgb(0,0,0);stroke-width:2"/>
<line x1="270" y1="45" x2="260" y2="90" style="stroke:rgb(0,0,0);stroke-width:2"/>
<line x1="260" y1="90" x2="245" y2="130" style="stroke:rgb(0,0,0);stroke-width:2"/>
<line x1="245" y1="130" x2="270" y2="170" style="stroke:rgb(0,0,0);stroke-width:2"/>
<line x1="270" y1="170" x2="270" y2="215" style="stroke:rgb(0,0,0);stroke-width:2"/>
<line x1="270" y1="215" x2="225" y2="235" style="stroke:rgb(0,0,0);stroke-width:2"/>
<line x1="225" y1="235" x2="200" y2="180" style="stroke:rgb(0,0,0);stroke-width:2"/>
<line x1="200" y1="180" x2="140" y2="235" style="stroke:rgb(0,0,0);stroke-width:2"/>
<line x1="140" y1="235" x2="70" y2="235" style="stroke:rgb(0,0,0);stroke-width:2"/>
<line x1="70" y1="235" x2="75" y2="195" style="stroke:rgb(0,0,0);stroke-width:2"/>
<line x1="75" y1="195" x2="35" y2="160" style="stroke:rgb(0,0,0);stroke-width:2"/>
<line x1="35" y1="160" x2="0" y2="120" style="stroke:rgb(0,0,0);stroke-width:2"/>
<line x1="0" y1="120" x2="20" y2="85" style="stroke:rgb(0,0,0);stroke-width:2"/>
<line x1="20" y1="85" x2="0" y2="40" style="stroke:rgb(0,0,0);stroke-width:2"/>
<line x1="0" y1="40" x2="0" y2="0" style="stroke:rgb(0,0,0);stroke-width:2"/>
<line x1="0" y1="0" x2="270" y2="0" style="stroke:rgb(0,0,0);stroke-width:2"/>
</svg>
