<svg width="320" height="335">
<rect width="100%" height="100%" fill="white"/>
<line x1="160" y1="0" x2="215" y2="30" style="stroke:rgb(0,0,0);stroke-width:2"/>
<line x1="215" y1="30" x2="260" y2="0" style="stroke:rgb(0,0,0);stroke-width:2"/>
<line x1="260" y1="0" x2="320" y2="15" style="stroke:rgb(0,0,0);stroke-width:2"/>
<line x1="320" y1="15" x2="320" y2="95" style="stroke:rgb(0,0,0);stroke-width:2"/>
<line x1="320" y1="95" x2="300" y2="175" style="stroke:rgb(0,0,0);stroke-width:2"/>
<line x1="300" y1="175" x2="275" y2="215" style="stroke:rgb(0,0,0);stroke-width:2"/>
<line x1="275" y1="215" x2="320" y2="265" style="stroke:rgb(0,0,0);stroke-width:2"/>
<line x1="320" y1="265" x2="265" y2="280" style="stroke:rgb(0,0,0);stroke-width:2"/>
<line x1="265" y1="280" x2="300" y2="330" style="stroke:rgb(0,0,0);stroke-width:2"/>
<line x1="300" y1="330" x2="180" y2="330" style="stroke:rgb(0,0,0);stroke-width:2"/>
<line x1="180" y1="330" x2="115" y2="335" style="stroke:rgb(0,0,0);stroke-width:2"/>
<line x1="115" y1="335" x2="15" y2="335" style="stroke:rgb(0,0,0);stroke-width:2"/>
<line x1="15" y1="335" x2="10" y2="270" style="stroke:rgb(0,0,0);stroke-width:2"/>
<line x1="10" y1="270" x2="5" y2="185" style="stroke:rgb(0,0,0);stroke-width:2"/>
<line x1="5" y1="185" x2="0" y2="105" style="stroke:rgb(0,0,0);stroke-width:2"/>
<line x1="0" y1="105" x2="0" y2="25" style="stroke:rgb(0,0,0);stroke-width:2"/>
<line x1="0" y1="25" x2="55" y2="0" style="stroke:rgb(0,0,0);stroke-width:2"/>
<line x1="55" y1="0" x2="110" y2="5" style="stroke:rgb(0,0,0);stroke-width:2"/>
<line x1="110" y1="5" x2="160" y2="0" style="stroke:rgb(0,0,0);stroke-width:2"/>
</svg>
