<svg width="375" height="410">
<rect width="100%" height="100%" fill="white"/>
<line x1="0" y1="165" x2="55" y2="320" style="stroke:rgb(0,0,0);stroke-width:2"/>
<line x1="0" y1="165" x2="120" y2="105" style="stroke:rgb(0,0,0);stroke-width:2"/>
<line x1="0" y1="165" x2="120" y2="225" style="stroke:rgb(0,0,0);stroke-width:2"/>
<line x1="0" y1="165" x2="300" y2="0" style="stroke:rgb(0,0,0);stroke-width:2"/>
<line x1="55" y1="320" x2="115" y2="410" style="stroke:rgb(0,0,0);stroke-width:2"/>
<line x1="55" y1="320" x2="120" y2="225" style="stroke:rgb(0,0,0);stroke-width:2"/>
<line x1="115" y1="410" x2="235" y2="390" style="stroke:rgb(0,0,0);stroke-width:2"/>
<line x1="120" y1="105" x2="120" y2="225" style="stroke:rgb(0,0,0);stroke-width:2"/>
<line x1="120" y1="105" x2="230" y2="70" style="stroke:rgb(0,0,0);stroke-width:2"/>
<line x1="120" y1="225" x2="230" y2="260" style="stroke:rgb(0,0,0);stroke-width:2"/>
<line x1="230" y1="70" x2="300" y2="0" style="stroke:rgb(0,0,0);stroke-width:2"/>
<line x1="230" y1="70" x2="300" y2="165" style="stroke:rgb(0,0,0);stroke-width:2"/>
<line x1="230" y1="260" x2="235" y2="390" style="stroke:rgb(0,0,0);stroke-width:2"/>
<line x1="230" y1="260" x2="300" y2="165" style="stroke:rgb(0,0,0);stroke-width:2"/>
<line x1="230" y1="260" x2="345" y2="280" style="stroke:rgb(0,0,0);stroke-width:2"/>
<line x1="235" y1="390" x2="345" y2="280" style="stroke:rgb(0,0,0);stroke-width:2"/>
<line x1="300" y1="0" x2="375" y2="80" style="stroke:rgb(0,0,0);stroke-width:2"/>
<line x1="300" y1="165" x2="345" y2="280" style="stroke:rgb(0,0,0);stroke-width:2"/>
<line x1="300" y1="165" x2="375" y2="80" style="stroke:rgb(0,0,0);stroke-width:2"/>
<line x1="345" y1="280" x2="375" y2="80" style="stroke:rgb(0,0,0);stroke-width:2"/>
</svg>
