<svg width="280" height="265">
<rect width="100%" height="100%" fill="white"/>
<line x1="0" y1="25" x2="30" y2="0" style="stroke:rgb(0,0,0);stroke-width:2"/>
<line x1="30" y1="0" x2="170" y2="0" style="stroke:rgb(0,0,0);stroke-width:2"/>
<line x1="170" y1="0" x2="180" y2="40" style="stroke:rgb(0,0,0);stroke-width:2"/>
<line x1="180" y1="40" x2="215" y2="75" style="stroke:rgb(0,0,0);stroke-width:2"/>
<line x1="215" y1="75" x2="240" y2="0" style="stroke:rgb(0,0,0);stroke-width:2"/>
<line x1="240" y1="0" x2="280" y2="10" style="stroke:rgb(0,0,0);stroke-width:2"/>
<line x1="280" y1="10" x2="280" y2="210" style="stroke:rgb(0,0,0);stroke-width:2"/>
<line x1="280" y1="210" x2="260" y2="245" style="stroke:rgb(0,0,0);stroke-width:2"/>
<line x1="260" y1="245" x2="225" y2="265" style="stroke:rgb(0,0,0);stroke-width:2"/>
<line x1="225" y1="265" x2="185" y2="260" style="stroke:rgb(0,0,0);stroke-width:2"/>
<line x1="185" y1="260" x2="140" y2="265" style="stroke:rgb(0,0,0);stroke-width:2"/>
<line x1="140" y1="265" x2="95" y2="260" style="stroke:rgb(0,0,0);stroke-width:2"/>
<line x1="95" y1="260" x2="35" y2="265" style="stroke:rgb(0,0,0);stroke-width:2"/>
<line x1="35" y1="265" x2="55" y2="200" style="stroke:rgb(0,0,0);stroke-width:2"/>
<line x1="55" y1="200" x2="0" y2="215" style="stroke:rgb(0,0,0);stroke-width:2"/>
<line x1="0" y1="215" x2="0" y2="25" style="stroke:rgb(0,0,0);stroke-width:2"/>
</svg>
