<svg width="375" height="445">
<rect width="100%" height="100%" fill="white"/>
<line x1="110" y1="0" x2="105" y2="65" style="stroke:rgb(0,0,0);stroke-width:2"/>
<line x1="105" y1="65" x2="215" y2="40" style="stroke:rgb(0,0,0);stroke-width:2"/>
<line x1="215" y1="40" x2="90" y2="225" style="stroke:rgb(0,0,0);stroke-width:2"/>
<line x1="90" y1="225" x2="285" y2="65" style="stroke:rgb(0,0,0);stroke-width:2"/>
<line x1="285" y1="65" x2="285" y2="155" style="stroke:rgb(0,0,0);stroke-width:2"/>
<line x1="285" y1="155" x2="240" y2="205" style="stroke:rgb(0,0,0);stroke-width:2"/>
<line x1="240" y1="205" x2="305" y2="225" style="stroke:rgb(0,0,0);stroke-width:2"/>
<line x1="305" y1="225" x2="370" y2="210" style="stroke:rgb(0,0,0);stroke-width:2"/>
<line x1="370" y1="210" x2="375" y2="445" style="stroke:rgb(0,0,0);stroke-width:2"/>
<line x1="375" y1="445" x2="315" y2="395" style="stroke:rgb(0,0,0);stroke-width:2"/>
<line x1="315" y1="395" x2="240" y2="445" style="stroke:rgb(0,0,0);stroke-width:2"/>
<line x1="240" y1="445" x2="245" y2="360" style="stroke:rgb(0,0,0);stroke-width:2"/>
<line x1="245" y1="360" x2="305" y2="295" style="stroke:rgb(0,0,0);stroke-width:2"/>
<line x1="305" y1="295" x2="215" y2="265" style="stroke:rgb(0,0,0);stroke-width:2"/>
<line x1="215" y1="265" x2="180" y2="350" style="stroke:rgb(0,0,0);stroke-width:2"/>
<line x1="180" y1="350" x2="125" y2="420" style="stroke:rgb(0,0,0);stroke-width:2"/>
<line x1="125" y1="420" x2="75" y2="380" style="stroke:rgb(0,0,0);stroke-width:2"/>
<line x1="75" y1="380" x2="20" y2="445" style="stroke:rgb(0,0,0);stroke-width:2"/>
<line x1="20" y1="445" x2="5" y2="360" style="stroke:rgb(0,0,0);stroke-width:2"/>
<line x1="5" y1="360" x2="0" y2="255" style="stroke:rgb(0,0,0);stroke-width:2"/>
<line x1="0" y1="255" x2="30" y2="200" style="stroke:rgb(0,0,0);stroke-width:2"/>
<line x1="30" y1="200" x2="65" y2="150" style="stroke:rgb(0,0,0);stroke-width:2"/>
<line x1="65" y1="150" x2="0" y2="125" style="stroke:rgb(0,0,0);stroke-width:2"/>
<line x1="0" y1="125" x2="20" y2="65" style="stroke:rgb(0,0,0);stroke-width:2"/>
<line x1="20" y1="65" x2="25" y2="5" style="stroke:rgb(0,0,0);stroke-width:2"/>
<line x1="25" y1="5" x2="110" y2="0" style="stroke:rgb(0,0,0);stroke-width:2"/>
</svg>
