<svg width="295" height="370">
<rect width="100%" height="100%" fill="white"/>
<line x1="65" y1="0" x2="115" y2="65" style="stroke:rgb(0,0,0);stroke-width:2"/>
<line x1="115" y1="65" x2="70" y2="135" style="stroke:rgb(0,0,0);stroke-width:2"/>
<line x1="70" y1="135" x2="130" y2="150" style="stroke:rgb(0,0,0);stroke-width:2"/>
<line x1="130" y1="150" x2="205" y2="90" style="stroke:rgb(0,0,0);stroke-width:2"/>
<line x1="205" y1="90" x2="150" y2="0" style="stroke:rgb(0,0,0);stroke-width:2"/>
<line x1="150" y1="0" x2="220" y2="5" style="stroke:rgb(0,0,0);stroke-width:2"/>
<line x1="220" y1="5" x2="295" y2="35" style="stroke:rgb(0,0,0);stroke-width:2"/>
<line x1="295" y1="35" x2="295" y2="100" style="stroke:rgb(0,0,0);stroke-width:2"/>
<line x1="295" y1="100" x2="220" y2="150" style="stroke:rgb(0,0,0);stroke-width:2"/>
<line x1="220" y1="150" x2="265" y2="180" style="stroke:rgb(0,0,0);stroke-width:2"/>
<line x1="265" y1="180" x2="205" y2="235" style="stroke:rgb(0,0,0);stroke-width:2"/>
<line x1="205" y1="235" x2="280" y2="255" style="stroke:rgb(0,0,0);stroke-width:2"/>
<line x1="280" y1="255" x2="290" y2="310" style="stroke:rgb(0,0,0);stroke-width:2"/>
<line x1="290" y1="310" x2="295" y2="370" style="stroke:rgb(0,0,0);stroke-width:2"/>
<line x1="295" y1="370" x2="245" y2="370" style="stroke:rgb(0,0,0);stroke-width:2"/>
<line x1="245" y1="370" x2="240" y2="310" style="stroke:rgb(0,0,0);stroke-width:2"/>
<line x1="240" y1="310" x2="115" y2="370" style="stroke:rgb(0,0,0);stroke-width:2"/>
<line x1="115" y1="370" x2="45" y2="370" style="stroke:rgb(0,0,0);stroke-width:2"/>
<line x1="45" y1="370" x2="60" y2="300" style="stroke:rgb(0,0,0);stroke-width:2"/>
<line x1="60" y1="300" x2="5" y2="280" style="stroke:rgb(0,0,0);stroke-width:2"/>
<line x1="5" y1="280" x2="15" y2="230" style="stroke:rgb(0,0,0);stroke-width:2"/>
<line x1="15" y1="230" x2="65" y2="205" style="stroke:rgb(0,0,0);stroke-width:2"/>
<line x1="65" y1="205" x2="10" y2="160" style="stroke:rgb(0,0,0);stroke-width:2"/>
<line x1="10" y1="160" x2="0" y2="105" style="stroke:rgb(0,0,0);stroke-width:2"/>
<line x1="0" y1="105" x2="20" y2="35" style="stroke:rgb(0,0,0);stroke-width:2"/>
<line x1="20" y1="35" x2="65" y2="0" style="stroke:rgb(0,0,0);stroke-width:2"/>
</svg>
