<svg width="195" height="495">
<rect width="100%" height="100%" fill="white"/>
<line x1="0" y1="410" x2="110" y2="495" style="stroke:rgb(0,0,0);stroke-width:2"/>
<line x1="0" y1="410" x2="0" y2="230" style="stroke:rgb(0,0,0);stroke-width:2"/>
<line x1="0" y1="410" x2="125" y2="335" style="stroke:rgb(0,0,0);stroke-width:2"/>
<line x1="110" y1="495" x2="20" y2="395" style="stroke:rgb(0,0,0);stroke-width:2"/>
<line x1="110" y1="495" x2="25" y2="255" style="stroke:rgb(0,0,0);stroke-width:2"/>
<line x1="0" y1="230" x2="125" y2="335" style="stroke:rgb(0,0,0);stroke-width:2"/>
<line x1="0" y1="230" x2="90" y2="145" style="stroke:rgb(0,0,0);stroke-width:2"/>
<line x1="0" y1="230" x2="90" y2="0" style="stroke:rgb(0,0,0);stroke-width:2"/>
<line x1="125" y1="335" x2="20" y2="395" style="stroke:rgb(0,0,0);stroke-width:2"/>
<line x1="125" y1="335" x2="160" y2="205" style="stroke:rgb(0,0,0);stroke-width:2"/>
<line x1="20" y1="395" x2="25" y2="255" style="stroke:rgb(0,0,0);stroke-width:2"/>
<line x1="90" y1="145" x2="90" y2="0" style="stroke:rgb(0,0,0);stroke-width:2"/>
<line x1="90" y1="145" x2="70" y2="290" style="stroke:rgb(0,0,0);stroke-width:2"/>
<line x1="25" y1="255" x2="160" y2="205" style="stroke:rgb(0,0,0);stroke-width:2"/>
<line x1="25" y1="255" x2="195" y2="325" style="stroke:rgb(0,0,0);stroke-width:2"/>
<line x1="160" y1="205" x2="70" y2="290" style="stroke:rgb(0,0,0);stroke-width:2"/>
<line x1="160" y1="205" x2="195" y2="325" style="stroke:rgb(0,0,0);stroke-width:2"/>
<line x1="90" y1="0" x2="105" y2="145" style="stroke:rgb(0,0,0);stroke-width:2"/>
<line x1="70" y1="290" x2="195" y2="325" style="stroke:rgb(0,0,0);stroke-width:2"/>
<line x1="70" y1="290" x2="105" y2="145" style="stroke:rgb(0,0,0);stroke-width:2"/>
<line x1="195" y1="325" x2="105" y2="145" style="stroke:rgb(0,0,0);stroke-width:2"/>
</svg>
