<svg width="355" height="380">
<rect width="100%" height="100%" fill="white"/>
<line x1="115" y1="0" x2="245" y2="0" style="stroke:rgb(0,0,0);stroke-width:2"/>
<line x1="245" y1="0" x2="300" y2="25" style="stroke:rgb(0,0,0);stroke-width:2"/>
<line x1="300" y1="25" x2="355" y2="0" style="stroke:rgb(0,0,0);stroke-width:2"/>
<line x1="355" y1="0" x2="355" y2="75" style="stroke:rgb(0,0,0);stroke-width:2"/>
<line x1="355" y1="75" x2="315" y2="120" style="stroke:rgb(0,0,0);stroke-width:2"/>
<line x1="315" y1="120" x2="275" y2="170" style="stroke:rgb(0,0,0);stroke-width:2"/>
<line x1="275" y1="170" x2="295" y2="220" style="stroke:rgb(0,0,0);stroke-width:2"/>
<line x1="295" y1="220" x2="355" y2="255" style="stroke:rgb(0,0,0);stroke-width:2"/>
<line x1="355" y1="255" x2="355" y2="320" style="stroke:rgb(0,0,0);stroke-width:2"/>
<line x1="355" y1="320" x2="350" y2="380" style="stroke:rgb(0,0,0);stroke-width:2"/>
<line x1="350" y1="380" x2="115" y2="380" style="stroke:rgb(0,0,0);stroke-width:2"/>
<line x1="115" y1="380" x2="0" y2="335" style="stroke:rgb(0,0,0);stroke-width:2"/>
<line x1="0" y1="335" x2="120" y2="300" style="stroke:rgb(0,0,0);stroke-width:2"/>
<line x1="120" y1="300" x2="130" y2="245" style="stroke:rgb(0,0,0);stroke-width:2"/>
<line x1="130" y1="245" x2="125" y2="190" style="stroke:rgb(0,0,0);stroke-width:2"/>
<line x1="125" y1="190" x2="65" y2="150" style="stroke:rgb(0,0,0);stroke-width:2"/>
<line x1="65" y1="150" x2="0" y2="180" style="stroke:rgb(0,0,0);stroke-width:2"/>
<line x1="0" y1="180" x2="10" y2="115" style="stroke:rgb(0,0,0);stroke-width:2"/>
<line x1="10" y1="115" x2="0" y2="55" style="stroke:rgb(0,0,0);stroke-width:2"/>
<line x1="0" y1="55" x2="55" y2="25" style="stroke:rgb(0,0,0);stroke-width:2"/>
<line x1="55" y1="25" x2="115" y2="0" style="stroke:rgb(0,0,0);stroke-width:2"/>
</svg>
