<svg width="445" height="340">
<rect width="100%" height="100%" fill="white"/>
<line x1="220" y1="290" x2="220" y2="0" style="stroke:rgb(0,0,0);stroke-width:2"/>
<line x1="220" y1="0" x2="135" y2="205" style="stroke:rgb(0,0,0);stroke-width:2"/>
<line x1="135" y1="205" x2="220" y2="290" style="stroke:rgb(0,0,0);stroke-width:2"/>
<line x1="135" y1="205" x2="150" y2="265" style="stroke:rgb(0,0,0);stroke-width:2"/>
<line x1="150" y1="265" x2="220" y2="290" style="stroke:rgb(0,0,0);stroke-width:2"/>
<line x1="220" y1="290" x2="220" y2="315" style="stroke:rgb(0,0,0);stroke-width:2"/>
<line x1="220" y1="315" x2="165" y2="340" style="stroke:rgb(0,0,0);stroke-width:2"/>
<line x1="165" y1="340" x2="150" y2="265" style="stroke:rgb(0,0,0);stroke-width:2"/>
<line x1="220" y1="315" x2="280" y2="340" style="stroke:rgb(0,0,0);stroke-width:2"/>
<line x1="280" y1="340" x2="295" y2="265" style="stroke:rgb(0,0,0);stroke-width:2"/>
<line x1="295" y1="265" x2="220" y2="290" style="stroke:rgb(0,0,0);stroke-width:2"/>
<line x1="220" y1="290" x2="305" y2="205" style="stroke:rgb(0,0,0);stroke-width:2"/>
<line x1="305" y1="205" x2="295" y2="265" style="stroke:rgb(0,0,0);stroke-width:2"/>
<line x1="305" y1="205" x2="220" y2="0" style="stroke:rgb(0,0,0);stroke-width:2"/>
<line x1="280" y1="340" x2="445" y2="105" style="stroke:rgb(0,0,0);stroke-width:2"/>
<line x1="445" y1="105" x2="220" y2="315" style="stroke:rgb(0,0,0);stroke-width:2"/>
<line x1="165" y1="340" x2="45" y2="170" style="stroke:rgb(0,0,0);stroke-width:2"/>
<line x1="45" y1="170" x2="70" y2="170" style="stroke:rgb(0,0,0);stroke-width:2"/>
<line x1="70" y1="170" x2="220" y2="315" style="stroke:rgb(0,0,0);stroke-width:2"/>
<line x1="70" y1="170" x2="0" y2="240" style="stroke:rgb(0,0,0);stroke-width:2"/>
<line x1="0" y1="240" x2="45" y2="170" style="stroke:rgb(0,0,0);stroke-width:2"/>
</svg>
