<svg width="355" height="360">
<rect width="100%" height="100%" fill="white"/>
<line x1="50" y1="360" x2="135" y2="355" style="stroke:rgb(0,0,0);stroke-width:2"/>
<line x1="135" y1="355" x2="130" y2="330" style="stroke:rgb(0,0,0);stroke-width:2"/>
<line x1="130" y1="330" x2="115" y2="320" style="stroke:rgb(0,0,0);stroke-width:2"/>
<line x1="115" y1="320" x2="115" y2="340" style="stroke:rgb(0,0,0);stroke-width:2"/>
<line x1="115" y1="340" x2="65" y2="330" style="stroke:rgb(0,0,0);stroke-width:2"/>
<line x1="65" y1="330" x2="45" y2="340" style="stroke:rgb(0,0,0);stroke-width:2"/>
<line x1="45" y1="340" x2="50" y2="360" style="stroke:rgb(0,0,0);stroke-width:2"/>
<line x1="115" y1="340" x2="135" y2="355" style="stroke:rgb(0,0,0);stroke-width:2"/>
<line x1="195" y1="330" x2="210" y2="325" style="stroke:rgb(0,0,0);stroke-width:2"/>
<line x1="210" y1="325" x2="215" y2="340" style="stroke:rgb(0,0,0);stroke-width:2"/>
<line x1="215" y1="340" x2="250" y2="335" style="stroke:rgb(0,0,0);stroke-width:2"/>
<line x1="250" y1="335" x2="255" y2="360" style="stroke:rgb(0,0,0);stroke-width:2"/>
<line x1="255" y1="360" x2="195" y2="360" style="stroke:rgb(0,0,0);stroke-width:2"/>
<line x1="195" y1="360" x2="195" y2="330" style="stroke:rgb(0,0,0);stroke-width:2"/>
<line x1="215" y1="340" x2="195" y2="360" style="stroke:rgb(0,0,0);stroke-width:2"/>
<line x1="130" y1="330" x2="195" y2="330" style="stroke:rgb(0,0,0);stroke-width:2"/>
<line x1="210" y1="325" x2="250" y2="305" style="stroke:rgb(0,0,0);stroke-width:2"/>
<line x1="250" y1="305" x2="235" y2="250" style="stroke:rgb(0,0,0);stroke-width:2"/>
<line x1="235" y1="250" x2="85" y2="230" style="stroke:rgb(0,0,0);stroke-width:2"/>
<line x1="85" y1="230" x2="85" y2="295" style="stroke:rgb(0,0,0);stroke-width:2"/>
<line x1="85" y1="295" x2="115" y2="320" style="stroke:rgb(0,0,0);stroke-width:2"/>
<line x1="85" y1="230" x2="60" y2="240" style="stroke:rgb(0,0,0);stroke-width:2"/>
<line x1="60" y1="240" x2="85" y2="295" style="stroke:rgb(0,0,0);stroke-width:2"/>
<line x1="235" y1="250" x2="260" y2="230" style="stroke:rgb(0,0,0);stroke-width:2"/>
<line x1="260" y1="230" x2="270" y2="255" style="stroke:rgb(0,0,0);stroke-width:2"/>
<line x1="270" y1="255" x2="250" y2="305" style="stroke:rgb(0,0,0);stroke-width:2"/>
<line x1="270" y1="255" x2="315" y2="245" style="stroke:rgb(0,0,0);stroke-width:2"/>
<line x1="315" y1="245" x2="330" y2="225" style="stroke:rgb(0,0,0);stroke-width:2"/>
<line x1="330" y1="225" x2="335" y2="245" style="stroke:rgb(0,0,0);stroke-width:2"/>
<line x1="335" y1="245" x2="315" y2="245" style="stroke:rgb(0,0,0);stroke-width:2"/>
<line x1="335" y1="245" x2="335" y2="300" style="stroke:rgb(0,0,0);stroke-width:2"/>
<line x1="335" y1="300" x2="355" y2="325" style="stroke:rgb(0,0,0);stroke-width:2"/>
<line x1="355" y1="325" x2="310" y2="310" style="stroke:rgb(0,0,0);stroke-width:2"/>
<line x1="310" y1="310" x2="335" y2="300" style="stroke:rgb(0,0,0);stroke-width:2"/>
<line x1="85" y1="295" x2="20" y2="250" style="stroke:rgb(0,0,0);stroke-width:2"/>
<line x1="20" y1="250" x2="10" y2="235" style="stroke:rgb(0,0,0);stroke-width:2"/>
<line x1="10" y1="235" x2="0" y2="250" style="stroke:rgb(0,0,0);stroke-width:2"/>
<line x1="0" y1="250" x2="20" y2="250" style="stroke:rgb(0,0,0);stroke-width:2"/>
<line x1="10" y1="235" x2="35" y2="160" style="stroke:rgb(0,0,0);stroke-width:2"/>
<line x1="35" y1="160" x2="25" y2="115" style="stroke:rgb(0,0,0);stroke-width:2"/>
<line x1="25" y1="115" x2="70" y2="140" style="stroke:rgb(0,0,0);stroke-width:2"/>
<line x1="70" y1="140" x2="35" y2="160" style="stroke:rgb(0,0,0);stroke-width:2"/>
<line x1="85" y1="230" x2="120" y2="165" style="stroke:rgb(0,0,0);stroke-width:2"/>
<line x1="120" y1="165" x2="160" y2="135" style="stroke:rgb(0,0,0);stroke-width:2"/>
<line x1="160" y1="135" x2="185" y2="165" style="stroke:rgb(0,0,0);stroke-width:2"/>
<line x1="185" y1="165" x2="235" y2="250" style="stroke:rgb(0,0,0);stroke-width:2"/>
<line x1="185" y1="165" x2="195" y2="125" style="stroke:rgb(0,0,0);stroke-width:2"/>
<line x1="195" y1="125" x2="240" y2="105" style="stroke:rgb(0,0,0);stroke-width:2"/>
<line x1="240" y1="105" x2="230" y2="60" style="stroke:rgb(0,0,0);stroke-width:2"/>
<line x1="230" y1="60" x2="280" y2="80" style="stroke:rgb(0,0,0);stroke-width:2"/>
<line x1="280" y1="80" x2="270" y2="40" style="stroke:rgb(0,0,0);stroke-width:2"/>
<line x1="270" y1="40" x2="230" y2="60" style="stroke:rgb(0,0,0);stroke-width:2"/>
<line x1="240" y1="105" x2="280" y2="80" style="stroke:rgb(0,0,0);stroke-width:2"/>
<line x1="120" y1="165" x2="95" y2="125" style="stroke:rgb(0,0,0);stroke-width:2"/>
<line x1="95" y1="125" x2="105" y2="60" style="stroke:rgb(0,0,0);stroke-width:2"/>
<line x1="105" y1="60" x2="130" y2="35" style="stroke:rgb(0,0,0);stroke-width:2"/>
<line x1="130" y1="35" x2="75" y2="30" style="stroke:rgb(0,0,0);stroke-width:2"/>
<line x1="75" y1="30" x2="105" y2="60" style="stroke:rgb(0,0,0);stroke-width:2"/>
<line x1="130" y1="35" x2="105" y2="0" style="stroke:rgb(0,0,0);stroke-width:2"/>
<line x1="105" y1="0" x2="75" y2="30" style="stroke:rgb(0,0,0);stroke-width:2"/>
</svg>
