<svg width="470" height="355">
<rect width="100%" height="100%" fill="white"/>
<line x1="100" y1="195" x2="125" y2="90" style="stroke:rgb(0,0,0);stroke-width:2"/>
<line x1="125" y1="90" x2="200" y2="0" style="stroke:rgb(0,0,0);stroke-width:2"/>
<line x1="200" y1="0" x2="265" y2="0" style="stroke:rgb(0,0,0);stroke-width:2"/>
<line x1="265" y1="0" x2="340" y2="90" style="stroke:rgb(0,0,0);stroke-width:2"/>
<line x1="340" y1="90" x2="360" y2="195" style="stroke:rgb(0,0,0);stroke-width:2"/>
<line x1="360" y1="195" x2="445" y2="230" style="stroke:rgb(0,0,0);stroke-width:2"/>
<line x1="445" y1="230" x2="470" y2="300" style="stroke:rgb(0,0,0);stroke-width:2"/>
<line x1="470" y1="300" x2="395" y2="335" style="stroke:rgb(0,0,0);stroke-width:2"/>
<line x1="395" y1="335" x2="285" y2="355" style="stroke:rgb(0,0,0);stroke-width:2"/>
<line x1="285" y1="355" x2="180" y2="355" style="stroke:rgb(0,0,0);stroke-width:2"/>
<line x1="180" y1="355" x2="75" y2="330" style="stroke:rgb(0,0,0);stroke-width:2"/>
<line x1="75" y1="330" x2="0" y2="300" style="stroke:rgb(0,0,0);stroke-width:2"/>
<line x1="0" y1="300" x2="35" y2="230" style="stroke:rgb(0,0,0);stroke-width:2"/>
<line x1="35" y1="230" x2="100" y2="195" style="stroke:rgb(0,0,0);stroke-width:2"/>
</svg>
