<svg width="260" height="515">
<rect width="100%" height="100%" fill="white"/>
<line x1="105" y1="175" x2="0" y2="110" style="stroke:rgb(0,0,0);stroke-width:2"/>
<line x1="0" y1="110" x2="130" y2="70" style="stroke:rgb(0,0,0);stroke-width:2"/>
<line x1="130" y1="70" x2="0" y2="40" style="stroke:rgb(0,0,0);stroke-width:2"/>
<line x1="0" y1="40" x2="75" y2="0" style="stroke:rgb(0,0,0);stroke-width:2"/>
<line x1="75" y1="0" x2="225" y2="0" style="stroke:rgb(0,0,0);stroke-width:2"/>
<line x1="225" y1="0" x2="260" y2="60" style="stroke:rgb(0,0,0);stroke-width:2"/>
<line x1="260" y1="60" x2="260" y2="240" style="stroke:rgb(0,0,0);stroke-width:2"/>
<line x1="260" y1="240" x2="255" y2="300" style="stroke:rgb(0,0,0);stroke-width:2"/>
<line x1="255" y1="300" x2="245" y2="430" style="stroke:rgb(0,0,0);stroke-width:2"/>
<line x1="245" y1="430" x2="190" y2="365" style="stroke:rgb(0,0,0);stroke-width:2"/>
<line x1="190" y1="365" x2="85" y2="425" style="stroke:rgb(0,0,0);stroke-width:2"/>
<line x1="85" y1="425" x2="155" y2="460" style="stroke:rgb(0,0,0);stroke-width:2"/>
<line x1="155" y1="460" x2="120" y2="515" style="stroke:rgb(0,0,0);stroke-width:2"/>
<line x1="120" y1="515" x2="10" y2="515" style="stroke:rgb(0,0,0);stroke-width:2"/>
<line x1="10" y1="515" x2="0" y2="425" style="stroke:rgb(0,0,0);stroke-width:2"/>
<line x1="0" y1="425" x2="0" y2="260" style="stroke:rgb(0,0,0);stroke-width:2"/>
<line x1="0" y1="260" x2="40" y2="205" style="stroke:rgb(0,0,0);stroke-width:2"/>
<line x1="40" y1="205" x2="105" y2="175" style="stroke:rgb(0,0,0);stroke-width:2"/>
</svg>
