<svg width="410" height="295">
<rect width="100%" height="100%" fill="white"/>
<line x1="100" y1="270" x2="125" y2="130" style="stroke:rgb(0,0,0);stroke-width:2"/>
<line x1="100" y1="270" x2="240" y2="295" style="stroke:rgb(0,0,0);stroke-width:2"/>
<line x1="100" y1="270" x2="265" y2="155" style="stroke:rgb(0,0,0);stroke-width:2"/>
<line x1="125" y1="130" x2="265" y2="155" style="stroke:rgb(0,0,0);stroke-width:2"/>
<line x1="125" y1="130" x2="250" y2="225" style="stroke:rgb(0,0,0);stroke-width:2"/>
<line x1="240" y1="295" x2="265" y2="155" style="stroke:rgb(0,0,0);stroke-width:2"/>
<line x1="240" y1="295" x2="120" y2="180" style="stroke:rgb(0,0,0);stroke-width:2"/>
<line x1="265" y1="155" x2="120" y2="180" style="stroke:rgb(0,0,0);stroke-width:2"/>
<line x1="265" y1="155" x2="410" y2="190" style="stroke:rgb(0,0,0);stroke-width:2"/>
<line x1="250" y1="225" x2="410" y2="190" style="stroke:rgb(0,0,0);stroke-width:2"/>
<line x1="50" y1="80" x2="120" y2="180" style="stroke:rgb(0,0,0);stroke-width:2"/>
<line x1="50" y1="80" x2="110" y2="175" style="stroke:rgb(0,0,0);stroke-width:2"/>
<line x1="50" y1="80" x2="220" y2="110" style="stroke:rgb(0,0,0);stroke-width:2"/>
<line x1="120" y1="180" x2="220" y2="110" style="stroke:rgb(0,0,0);stroke-width:2"/>
<line x1="410" y1="190" x2="365" y2="40" style="stroke:rgb(0,0,0);stroke-width:2"/>
<line x1="110" y1="175" x2="220" y2="110" style="stroke:rgb(0,0,0);stroke-width:2"/>
<line x1="110" y1="175" x2="130" y2="0" style="stroke:rgb(0,0,0);stroke-width:2"/>
<line x1="220" y1="110" x2="365" y2="40" style="stroke:rgb(0,0,0);stroke-width:2"/>
<line x1="220" y1="110" x2="130" y2="0" style="stroke:rgb(0,0,0);stroke-width:2"/>
<line x1="365" y1="40" x2="225" y2="120" style="stroke:rgb(0,0,0);stroke-width:2"/>
<line x1="0" y1="125" x2="130" y2="0" style="stroke:rgb(0,0,0);stroke-width:2"/>
<line x1="0" y1="125" x2="190" y2="170" style="stroke:rgb(0,0,0);stroke-width:2"/>
<line x1="130" y1="0" x2="225" y2="120" style="stroke:rgb(0,0,0);stroke-width:2"/>
<line x1="130" y1="0" x2="190" y2="170" style="stroke:rgb(0,0,0);stroke-width:2"/>
<line x1="225" y1="120" x2="115" y2="40" style="stroke:rgb(0,0,0);stroke-width:2"/>
<line x1="190" y1="170" x2="115" y2="40" style="stroke:rgb(0,0,0);stroke-width:2"/>
</svg>
