<svg width="335" height="495">
<rect width="100%" height="100%" fill="white"/>
<line x1="0" y1="170" x2="5" y2="70" style="stroke:rgb(0,0,0);stroke-width:2"/>
<line x1="5" y1="70" x2="75" y2="65" style="stroke:rgb(0,0,0);stroke-width:2"/>
<line x1="75" y1="65" x2="35" y2="0" style="stroke:rgb(0,0,0);stroke-width:2"/>
<line x1="35" y1="0" x2="175" y2="0" style="stroke:rgb(0,0,0);stroke-width:2"/>
<line x1="175" y1="0" x2="265" y2="10" style="stroke:rgb(0,0,0);stroke-width:2"/>
<line x1="265" y1="10" x2="335" y2="60" style="stroke:rgb(0,0,0);stroke-width:2"/>
<line x1="335" y1="60" x2="280" y2="130" style="stroke:rgb(0,0,0);stroke-width:2"/>
<line x1="280" y1="130" x2="200" y2="170" style="stroke:rgb(0,0,0);stroke-width:2"/>
<line x1="200" y1="170" x2="200" y2="300" style="stroke:rgb(0,0,0);stroke-width:2"/>
<line x1="200" y1="300" x2="325" y2="270" style="stroke:rgb(0,0,0);stroke-width:2"/>
<line x1="325" y1="270" x2="315" y2="390" style="stroke:rgb(0,0,0);stroke-width:2"/>
<line x1="315" y1="390" x2="250" y2="415" style="stroke:rgb(0,0,0);stroke-width:2"/>
<line x1="250" y1="415" x2="150" y2="495" style="stroke:rgb(0,0,0);stroke-width:2"/>
<line x1="150" y1="495" x2="120" y2="385" style="stroke:rgb(0,0,0);stroke-width:2"/>
<line x1="120" y1="385" x2="5" y2="475" style="stroke:rgb(0,0,0);stroke-width:2"/>
<line x1="5" y1="475" x2="40" y2="360" style="stroke:rgb(0,0,0);stroke-width:2"/>
<line x1="40" y1="360" x2="70" y2="270" style="stroke:rgb(0,0,0);stroke-width:2"/>
<line x1="70" y1="270" x2="0" y2="280" style="stroke:rgb(0,0,0);stroke-width:2"/>
<line x1="0" y1="280" x2="0" y2="170" style="stroke:rgb(0,0,0);stroke-width:2"/>
</svg>
