<svg width="345" height="510">
<rect width="100%" height="100%" fill="white"/>
<line x1="0" y1="160" x2="100" y2="60" style="stroke:rgb(0,0,0);stroke-width:2"/>
<line x1="0" y1="160" x2="100" y2="260" style="stroke:rgb(0,0,0);stroke-width:2"/>
<line x1="100" y1="60" x2="200" y2="160" style="stroke:rgb(0,0,0);stroke-width:2"/>
<line x1="100" y1="260" x2="175" y2="370" style="stroke:rgb(0,0,0);stroke-width:2"/>
<line x1="100" y1="260" x2="200" y2="160" style="stroke:rgb(0,0,0);stroke-width:2"/>
<line x1="170" y1="0" x2="200" y2="160" style="stroke:rgb(0,0,0);stroke-width:2"/>
<line x1="170" y1="0" x2="325" y2="60" style="stroke:rgb(0,0,0);stroke-width:2"/>
<line x1="175" y1="370" x2="200" y2="510" style="stroke:rgb(0,0,0);stroke-width:2"/>
<line x1="175" y1="370" x2="315" y2="345" style="stroke:rgb(0,0,0);stroke-width:2"/>
<line x1="200" y1="160" x2="325" y2="60" style="stroke:rgb(0,0,0);stroke-width:2"/>
<line x1="200" y1="160" x2="335" y2="230" style="stroke:rgb(0,0,0);stroke-width:2"/>
<line x1="200" y1="510" x2="345" y2="475" style="stroke:rgb(0,0,0);stroke-width:2"/>
<line x1="315" y1="345" x2="335" y2="230" style="stroke:rgb(0,0,0);stroke-width:2"/>
<line x1="315" y1="345" x2="345" y2="475" style="stroke:rgb(0,0,0);stroke-width:2"/>
<line x1="325" y1="60" x2="335" y2="230" style="stroke:rgb(0,0,0);stroke-width:2"/>
</svg>
