<svg width="535" height="610">
<rect width="100%" height="100%" fill="white"/>
<line x1="275" y1="0" x2="305" y2="15" style="stroke:rgb(0,0,0);stroke-width:2"/>
<line x1="305" y1="15" x2="340" y2="165" style="stroke:rgb(0,0,0);stroke-width:2"/>
<line x1="340" y1="165" x2="425" y2="215" style="stroke:rgb(0,0,0);stroke-width:2"/>
<line x1="425" y1="215" x2="535" y2="180" style="stroke:rgb(0,0,0);stroke-width:2"/>
<line x1="535" y1="180" x2="470" y2="360" style="stroke:rgb(0,0,0);stroke-width:2"/>
<line x1="470" y1="360" x2="505" y2="440" style="stroke:rgb(0,0,0);stroke-width:2"/>
<line x1="505" y1="440" x2="475" y2="525" style="stroke:rgb(0,0,0);stroke-width:2"/>
<line x1="475" y1="525" x2="350" y2="550" style="stroke:rgb(0,0,0);stroke-width:2"/>
<line x1="350" y1="550" x2="235" y2="585" style="stroke:rgb(0,0,0);stroke-width:2"/>
<line x1="235" y1="585" x2="265" y2="480" style="stroke:rgb(0,0,0);stroke-width:2"/>
<line x1="265" y1="480" x2="315" y2="360" style="stroke:rgb(0,0,0);stroke-width:2"/>
<line x1="315" y1="360" x2="195" y2="375" style="stroke:rgb(0,0,0);stroke-width:2"/>
<line x1="195" y1="375" x2="110" y2="345" style="stroke:rgb(0,0,0);stroke-width:2"/>
<line x1="110" y1="345" x2="95" y2="610" style="stroke:rgb(0,0,0);stroke-width:2"/>
<line x1="95" y1="610" x2="10" y2="405" style="stroke:rgb(0,0,0);stroke-width:2"/>
<line x1="10" y1="405" x2="0" y2="265" style="stroke:rgb(0,0,0);stroke-width:2"/>
<line x1="0" y1="265" x2="0" y2="150" style="stroke:rgb(0,0,0);stroke-width:2"/>
<line x1="0" y1="150" x2="275" y2="0" style="stroke:rgb(0,0,0);stroke-width:2"/>
</svg>
