<svg width="535" height="610">
<rect width="100%" height="100%" fill="white"/>
<line x1="0" y1="500" x2="75" y2="340" style="stroke:rgb(0,0,0);stroke-width:2"/>
<line x1="0" y1="500" x2="145" y2="610" style="stroke:rgb(0,0,0);stroke-width:2"/>
<line x1="75" y1="340" x2="260" y2="355" style="stroke:rgb(0,0,0);stroke-width:2"/>
<line x1="75" y1="340" x2="305" y2="20" style="stroke:rgb(0,0,0);stroke-width:2"/>
<line x1="145" y1="610" x2="295" y2="525" style="stroke:rgb(0,0,0);stroke-width:2"/>
<line x1="145" y1="610" x2="470" y2="540" style="stroke:rgb(0,0,0);stroke-width:2"/>
<line x1="260" y1="185" x2="260" y2="355" style="stroke:rgb(0,0,0);stroke-width:2"/>
<line x1="260" y1="185" x2="305" y2="20" style="stroke:rgb(0,0,0);stroke-width:2"/>
<line x1="260" y1="185" x2="410" y2="270" style="stroke:rgb(0,0,0);stroke-width:2"/>
<line x1="260" y1="355" x2="295" y2="525" style="stroke:rgb(0,0,0);stroke-width:2"/>
<line x1="260" y1="355" x2="410" y2="270" style="stroke:rgb(0,0,0);stroke-width:2"/>
<line x1="295" y1="525" x2="470" y2="540" style="stroke:rgb(0,0,0);stroke-width:2"/>
<line x1="305" y1="20" x2="480" y2="0" style="stroke:rgb(0,0,0);stroke-width:2"/>
<line x1="410" y1="270" x2="520" y2="170" style="stroke:rgb(0,0,0);stroke-width:2"/>
<line x1="410" y1="270" x2="535" y2="365" style="stroke:rgb(0,0,0);stroke-width:2"/>
<line x1="470" y1="540" x2="535" y2="365" style="stroke:rgb(0,0,0);stroke-width:2"/>
<line x1="480" y1="0" x2="520" y2="170" style="stroke:rgb(0,0,0);stroke-width:2"/>
<line x1="520" y1="170" x2="535" y2="365" style="stroke:rgb(0,0,0);stroke-width:2"/>
</svg>
