<svg width="520" height="285">
<rect width="100%" height="100%" fill="white"/>
<line x1="0" y1="20" x2="55" y2="0" style="stroke:rgb(0,0,0);stroke-width:2"/>
<line x1="55" y1="0" x2="105" y2="60" style="stroke:rgb(0,0,0);stroke-width:2"/>
<line x1="105" y1="60" x2="135" y2="0" style="stroke:rgb(0,0,0);stroke-width:2"/>
<line x1="135" y1="0" x2="205" y2="5" style="stroke:rgb(0,0,0);stroke-width:2"/>
<line x1="205" y1="5" x2="280" y2="0" style="stroke:rgb(0,0,0);stroke-width:2"/>
<line x1="280" y1="0" x2="520" y2="0" style="stroke:rgb(0,0,0);stroke-width:2"/>
<line x1="520" y1="0" x2="520" y2="125" style="stroke:rgb(0,0,0);stroke-width:2"/>
<line x1="520" y1="125" x2="465" y2="145" style="stroke:rgb(0,0,0);stroke-width:2"/>
<line x1="465" y1="145" x2="485" y2="205" style="stroke:rgb(0,0,0);stroke-width:2"/>
<line x1="485" y1="205" x2="520" y2="265" style="stroke:rgb(0,0,0);stroke-width:2"/>
<line x1="520" y1="265" x2="410" y2="285" style="stroke:rgb(0,0,0);stroke-width:2"/>
<line x1="410" y1="285" x2="335" y2="285" style="stroke:rgb(0,0,0);stroke-width:2"/>
<line x1="335" y1="285" x2="290" y2="245" style="stroke:rgb(0,0,0);stroke-width:2"/>
<line x1="290" y1="245" x2="200" y2="285" style="stroke:rgb(0,0,0);stroke-width:2"/>
<line x1="200" y1="285" x2="125" y2="285" style="stroke:rgb(0,0,0);stroke-width:2"/>
<line x1="125" y1="285" x2="60" y2="265" style="stroke:rgb(0,0,0);stroke-width:2"/>
<line x1="60" y1="265" x2="0" y2="280" style="stroke:rgb(0,0,0);stroke-width:2"/>
<line x1="0" y1="280" x2="0" y2="20" style="stroke:rgb(0,0,0);stroke-width:2"/>
</svg>
