<svg width="130" height="230">
<rect width="100%" height="100%" fill="white"/>
<line x1="130" y1="185" x2="110" y2="60" style="stroke:rgb(0,0,0);stroke-width:2"/>
<line x1="130" y1="185" x2="20" y2="105" style="stroke:rgb(0,0,0);stroke-width:2"/>
<line x1="110" y1="60" x2="10" y2="100" style="stroke:rgb(0,0,0);stroke-width:2"/>
<line x1="10" y1="100" x2="25" y2="0" style="stroke:rgb(0,0,0);stroke-width:2"/>
<line x1="10" y1="100" x2="120" y2="145" style="stroke:rgb(0,0,0);stroke-width:2"/>
<line x1="20" y1="105" x2="120" y2="145" style="stroke:rgb(0,0,0);stroke-width:2"/>
<line x1="25" y1="0" x2="125" y2="60" style="stroke:rgb(0,0,0);stroke-width:2"/>
<line x1="120" y1="145" x2="10" y2="95" style="stroke:rgb(0,0,0);stroke-width:2"/>
<line x1="125" y1="60" x2="10" y2="95" style="stroke:rgb(0,0,0);stroke-width:2"/>
<line x1="125" y1="60" x2="25" y2="115" style="stroke:rgb(0,0,0);stroke-width:2"/>
<line x1="10" y1="95" x2="100" y2="170" style="stroke:rgb(0,0,0);stroke-width:2"/>
<line x1="25" y1="115" x2="0" y2="230" style="stroke:rgb(0,0,0);stroke-width:2"/>
<line x1="25" y1="115" x2="100" y2="200" style="stroke:rgb(0,0,0);stroke-width:2"/>
<line x1="100" y1="170" x2="0" y2="230" style="stroke:rgb(0,0,0);stroke-width:2"/>
<line x1="0" y1="230" x2="100" y2="200" style="stroke:rgb(0,0,0);stroke-width:2"/>
</svg>
