<svg width="260" height="430">
<rect width="100%" height="100%" fill="white"/>
<line x1="60" y1="280" x2="140" y2="205" style="stroke:rgb(0,0,0);stroke-width:2"/>
<line x1="60" y1="280" x2="145" y2="200" style="stroke:rgb(0,0,0);stroke-width:2"/>
<line x1="140" y1="205" x2="260" y2="175" style="stroke:rgb(0,0,0);stroke-width:2"/>
<line x1="140" y1="205" x2="25" y2="205" style="stroke:rgb(0,0,0);stroke-width:2"/>
<line x1="145" y1="200" x2="25" y2="205" style="stroke:rgb(0,0,0);stroke-width:2"/>
<line x1="145" y1="200" x2="75" y2="100" style="stroke:rgb(0,0,0);stroke-width:2"/>
<line x1="260" y1="175" x2="140" y2="215" style="stroke:rgb(0,0,0);stroke-width:2"/>
<line x1="260" y1="175" x2="115" y2="235" style="stroke:rgb(0,0,0);stroke-width:2"/>
<line x1="25" y1="205" x2="75" y2="100" style="stroke:rgb(0,0,0);stroke-width:2"/>
<line x1="25" y1="205" x2="140" y2="215" style="stroke:rgb(0,0,0);stroke-width:2"/>
<line x1="25" y1="205" x2="125" y2="150" style="stroke:rgb(0,0,0);stroke-width:2"/>
<line x1="75" y1="100" x2="10" y2="0" style="stroke:rgb(0,0,0);stroke-width:2"/>
<line x1="75" y1="100" x2="70" y2="225" style="stroke:rgb(0,0,0);stroke-width:2"/>
<line x1="140" y1="215" x2="195" y2="350" style="stroke:rgb(0,0,0);stroke-width:2"/>
<line x1="115" y1="235" x2="0" y2="315" style="stroke:rgb(0,0,0);stroke-width:2"/>
<line x1="115" y1="235" x2="195" y2="350" style="stroke:rgb(0,0,0);stroke-width:2"/>
<line x1="125" y1="150" x2="70" y2="225" style="stroke:rgb(0,0,0);stroke-width:2"/>
<line x1="55" y1="70" x2="10" y2="0" style="stroke:rgb(0,0,0);stroke-width:2"/>
<line x1="55" y1="70" x2="70" y2="210" style="stroke:rgb(0,0,0);stroke-width:2"/>
<line x1="10" y1="0" x2="50" y2="85" style="stroke:rgb(0,0,0);stroke-width:2"/>
<line x1="70" y1="225" x2="50" y2="85" style="stroke:rgb(0,0,0);stroke-width:2"/>
<line x1="0" y1="315" x2="80" y2="430" style="stroke:rgb(0,0,0);stroke-width:2"/>
<line x1="195" y1="350" x2="80" y2="430" style="stroke:rgb(0,0,0);stroke-width:2"/>
<line x1="50" y1="85" x2="130" y2="140" style="stroke:rgb(0,0,0);stroke-width:2"/>
<line x1="70" y1="210" x2="130" y2="140" style="stroke:rgb(0,0,0);stroke-width:2"/>
</svg>
