<svg width="600" height="600">
<rect width="100%" height="100%" fill="white"/>
<line x1="0" y1="525" x2="0" y2="600" style="stroke:rgb(0,0,0);stroke-width:2"/>
<line x1="0" y1="600" x2="25" y2="600" style="stroke:rgb(0,0,0);stroke-width:2"/>
<line x1="25" y1="600" x2="100" y2="525" style="stroke:rgb(0,0,0);stroke-width:2"/>
<line x1="100" y1="525" x2="0" y2="525" style="stroke:rgb(0,0,0);stroke-width:2"/>
<line x1="0" y1="525" x2="0" y2="250" style="stroke:rgb(0,0,0);stroke-width:2"/>
<line x1="0" y1="250" x2="75" y2="100" style="stroke:rgb(0,0,0);stroke-width:2"/>
<line x1="75" y1="100" x2="300" y2="0" style="stroke:rgb(0,0,0);stroke-width:2"/>
<line x1="300" y1="0" x2="525" y2="100" style="stroke:rgb(0,0,0);stroke-width:2"/>
<line x1="525" y1="100" x2="600" y2="250" style="stroke:rgb(0,0,0);stroke-width:2"/>
<line x1="600" y1="250" x2="600" y2="525" style="stroke:rgb(0,0,0);stroke-width:2"/>
<line x1="600" y1="525" x2="500" y2="525" style="stroke:rgb(0,0,0);stroke-width:2"/>
<line x1="500" y1="525" x2="575" y2="600" style="stroke:rgb(0,0,0);stroke-width:2"/>
<line x1="575" y1="600" x2="600" y2="600" style="stroke:rgb(0,0,0);stroke-width:2"/>
<line x1="600" y1="600" x2="600" y2="525" style="stroke:rgb(0,0,0);stroke-width:2"/>
<line x1="500" y1="525" x2="425" y2="600" style="stroke:rgb(0,0,0);stroke-width:2"/>
<line x1="425" y1="600" x2="350" y2="600" style="stroke:rgb(0,0,0);stroke-width:2"/>
<line x1="350" y1="600" x2="350" y2="525" style="stroke:rgb(0,0,0);stroke-width:2"/>
<line x1="350" y1="525" x2="500" y2="525" style="stroke:rgb(0,0,0);stroke-width:2"/>
<line x1="100" y1="525" x2="250" y2="525" style="stroke:rgb(0,0,0);stroke-width:2"/>
<line x1="250" y1="525" x2="250" y2="600" style="stroke:rgb(0,0,0);stroke-width:2"/>
<line x1="250" y1="600" x2="175" y2="600" style="stroke:rgb(0,0,0);stroke-width:2"/>
<line x1="175" y1="600" x2="100" y2="525" style="stroke:rgb(0,0,0);stroke-width:2"/>
<line x1="250" y1="525" x2="350" y2="525" style="stroke:rgb(0,0,0);stroke-width:2"/>
<line x1="175" y1="225" x2="175" y2="300" style="stroke:rgb(0,0,0);stroke-width:2"/>
<line x1="175" y1="300" x2="250" y2="300" style="stroke:rgb(0,0,0);stroke-width:2"/>
<line x1="250" y1="300" x2="250" y2="225" style="stroke:rgb(0,0,0);stroke-width:2"/>
<line x1="250" y1="225" x2="175" y2="225" style="stroke:rgb(0,0,0);stroke-width:2"/>
<line x1="350" y1="225" x2="350" y2="300" style="stroke:rgb(0,0,0);stroke-width:2"/>
<line x1="350" y1="300" x2="425" y2="300" style="stroke:rgb(0,0,0);stroke-width:2"/>
<line x1="425" y1="300" x2="425" y2="225" style="stroke:rgb(0,0,0);stroke-width:2"/>
<line x1="425" y1="225" x2="350" y2="225" style="stroke:rgb(0,0,0);stroke-width:2"/>
<line x1="75" y1="100" x2="175" y2="225" style="stroke:rgb(0,0,0);stroke-width:2"/>
<line x1="175" y1="225" x2="0" y2="250" style="stroke:rgb(0,0,0);stroke-width:2"/>
<line x1="525" y1="100" x2="425" y2="225" style="stroke:rgb(0,0,0);stroke-width:2"/>
<line x1="425" y1="225" x2="600" y2="250" style="stroke:rgb(0,0,0);stroke-width:2"/>
<line x1="50" y1="475" x2="100" y2="400" style="stroke:rgb(0,0,0);stroke-width:2"/>
<line x1="100" y1="400" x2="150" y2="400" style="stroke:rgb(0,0,0);stroke-width:2"/>
<line x1="150" y1="400" x2="175" y2="475" style="stroke:rgb(0,0,0);stroke-width:2"/>
<line x1="175" y1="475" x2="250" y2="475" style="stroke:rgb(0,0,0);stroke-width:2"/>
<line x1="250" y1="475" x2="275" y2="400" style="stroke:rgb(0,0,0);stroke-width:2"/>
<line x1="275" y1="400" x2="325" y2="400" style="stroke:rgb(0,0,0);stroke-width:2"/>
<line x1="325" y1="400" x2="350" y2="475" style="stroke:rgb(0,0,0);stroke-width:2"/>
<line x1="350" y1="475" x2="425" y2="475" style="stroke:rgb(0,0,0);stroke-width:2"/>
<line x1="425" y1="475" x2="450" y2="400" style="stroke:rgb(0,0,0);stroke-width:2"/>
<line x1="450" y1="400" x2="500" y2="400" style="stroke:rgb(0,0,0);stroke-width:2"/>
<line x1="500" y1="400" x2="550" y2="475" style="stroke:rgb(0,0,0);stroke-width:2"/>
<line x1="250" y1="300" x2="275" y2="400" style="stroke:rgb(0,0,0);stroke-width:2"/>
<line x1="350" y1="300" x2="325" y2="400" style="stroke:rgb(0,0,0);stroke-width:2"/>
</svg>
