<svg width="305" height="280">
<rect width="100%" height="100%" fill="white"/>
<line x1="120" y1="50" x2="90" y2="70" style="stroke:rgb(0,0,0);stroke-width:2"/>
<line x1="90" y1="70" x2="60" y2="50" style="stroke:rgb(0,0,0);stroke-width:2"/>
<line x1="60" y1="50" x2="60" y2="15" style="stroke:rgb(0,0,0);stroke-width:2"/>
<line x1="60" y1="15" x2="90" y2="0" style="stroke:rgb(0,0,0);stroke-width:2"/>
<line x1="90" y1="0" x2="120" y2="15" style="stroke:rgb(0,0,0);stroke-width:2"/>
<line x1="120" y1="15" x2="120" y2="50" style="stroke:rgb(0,0,0);stroke-width:2"/>
<line x1="185" y1="50" x2="155" y2="70" style="stroke:rgb(0,0,0);stroke-width:2"/>
<line x1="155" y1="70" x2="120" y2="50" style="stroke:rgb(0,0,0);stroke-width:2"/>
<line x1="120" y1="50" x2="120" y2="15" style="stroke:rgb(0,0,0);stroke-width:2"/>
<line x1="120" y1="15" x2="155" y2="0" style="stroke:rgb(0,0,0);stroke-width:2"/>
<line x1="155" y1="0" x2="185" y2="15" style="stroke:rgb(0,0,0);stroke-width:2"/>
<line x1="185" y1="15" x2="185" y2="50" style="stroke:rgb(0,0,0);stroke-width:2"/>
<line x1="245" y1="50" x2="215" y2="70" style="stroke:rgb(0,0,0);stroke-width:2"/>
<line x1="215" y1="70" x2="185" y2="50" style="stroke:rgb(0,0,0);stroke-width:2"/>
<line x1="185" y1="50" x2="185" y2="15" style="stroke:rgb(0,0,0);stroke-width:2"/>
<line x1="185" y1="15" x2="215" y2="0" style="stroke:rgb(0,0,0);stroke-width:2"/>
<line x1="215" y1="0" x2="245" y2="15" style="stroke:rgb(0,0,0);stroke-width:2"/>
<line x1="245" y1="15" x2="245" y2="50" style="stroke:rgb(0,0,0);stroke-width:2"/>
<line x1="215" y1="105" x2="185" y2="120" style="stroke:rgb(0,0,0);stroke-width:2"/>
<line x1="185" y1="120" x2="155" y2="105" style="stroke:rgb(0,0,0);stroke-width:2"/>
<line x1="155" y1="105" x2="155" y2="70" style="stroke:rgb(0,0,0);stroke-width:2"/>
<line x1="155" y1="70" x2="185" y2="50" style="stroke:rgb(0,0,0);stroke-width:2"/>
<line x1="185" y1="50" x2="215" y2="70" style="stroke:rgb(0,0,0);stroke-width:2"/>
<line x1="215" y1="70" x2="215" y2="105" style="stroke:rgb(0,0,0);stroke-width:2"/>
<line x1="155" y1="105" x2="120" y2="120" style="stroke:rgb(0,0,0);stroke-width:2"/>
<line x1="120" y1="120" x2="90" y2="105" style="stroke:rgb(0,0,0);stroke-width:2"/>
<line x1="90" y1="105" x2="90" y2="70" style="stroke:rgb(0,0,0);stroke-width:2"/>
<line x1="90" y1="70" x2="120" y2="50" style="stroke:rgb(0,0,0);stroke-width:2"/>
<line x1="120" y1="50" x2="155" y2="70" style="stroke:rgb(0,0,0);stroke-width:2"/>
<line x1="155" y1="70" x2="155" y2="105" style="stroke:rgb(0,0,0);stroke-width:2"/>
<line x1="90" y1="105" x2="60" y2="120" style="stroke:rgb(0,0,0);stroke-width:2"/>
<line x1="60" y1="120" x2="30" y2="105" style="stroke:rgb(0,0,0);stroke-width:2"/>
<line x1="30" y1="105" x2="30" y2="70" style="stroke:rgb(0,0,0);stroke-width:2"/>
<line x1="30" y1="70" x2="60" y2="50" style="stroke:rgb(0,0,0);stroke-width:2"/>
<line x1="60" y1="50" x2="90" y2="70" style="stroke:rgb(0,0,0);stroke-width:2"/>
<line x1="90" y1="70" x2="90" y2="105" style="stroke:rgb(0,0,0);stroke-width:2"/>
<line x1="275" y1="105" x2="245" y2="120" style="stroke:rgb(0,0,0);stroke-width:2"/>
<line x1="245" y1="120" x2="215" y2="105" style="stroke:rgb(0,0,0);stroke-width:2"/>
<line x1="215" y1="105" x2="215" y2="70" style="stroke:rgb(0,0,0);stroke-width:2"/>
<line x1="215" y1="70" x2="245" y2="50" style="stroke:rgb(0,0,0);stroke-width:2"/>
<line x1="245" y1="50" x2="275" y2="70" style="stroke:rgb(0,0,0);stroke-width:2"/>
<line x1="275" y1="70" x2="275" y2="105" style="stroke:rgb(0,0,0);stroke-width:2"/>
<line x1="245" y1="155" x2="215" y2="175" style="stroke:rgb(0,0,0);stroke-width:2"/>
<line x1="215" y1="175" x2="185" y2="155" style="stroke:rgb(0,0,0);stroke-width:2"/>
<line x1="185" y1="155" x2="185" y2="120" style="stroke:rgb(0,0,0);stroke-width:2"/>
<line x1="185" y1="120" x2="215" y2="105" style="stroke:rgb(0,0,0);stroke-width:2"/>
<line x1="215" y1="105" x2="245" y2="120" style="stroke:rgb(0,0,0);stroke-width:2"/>
<line x1="245" y1="120" x2="245" y2="155" style="stroke:rgb(0,0,0);stroke-width:2"/>
<line x1="185" y1="155" x2="155" y2="175" style="stroke:rgb(0,0,0);stroke-width:2"/>
<line x1="155" y1="175" x2="120" y2="155" style="stroke:rgb(0,0,0);stroke-width:2"/>
<line x1="120" y1="155" x2="120" y2="120" style="stroke:rgb(0,0,0);stroke-width:2"/>
<line x1="120" y1="120" x2="155" y2="105" style="stroke:rgb(0,0,0);stroke-width:2"/>
<line x1="155" y1="105" x2="185" y2="120" style="stroke:rgb(0,0,0);stroke-width:2"/>
<line x1="185" y1="120" x2="185" y2="155" style="stroke:rgb(0,0,0);stroke-width:2"/>
<line x1="120" y1="155" x2="90" y2="175" style="stroke:rgb(0,0,0);stroke-width:2"/>
<line x1="90" y1="175" x2="60" y2="155" style="stroke:rgb(0,0,0);stroke-width:2"/>
<line x1="60" y1="155" x2="60" y2="120" style="stroke:rgb(0,0,0);stroke-width:2"/>
<line x1="60" y1="120" x2="90" y2="105" style="stroke:rgb(0,0,0);stroke-width:2"/>
<line x1="90" y1="105" x2="120" y2="120" style="stroke:rgb(0,0,0);stroke-width:2"/>
<line x1="120" y1="120" x2="120" y2="155" style="stroke:rgb(0,0,0);stroke-width:2"/>
<line x1="60" y1="155" x2="30" y2="175" style="stroke:rgb(0,0,0);stroke-width:2"/>
<line x1="30" y1="175" x2="0" y2="155" style="stroke:rgb(0,0,0);stroke-width:2"/>
<line x1="0" y1="155" x2="0" y2="120" style="stroke:rgb(0,0,0);stroke-width:2"/>
<line x1="0" y1="120" x2="30" y2="105" style="stroke:rgb(0,0,0);stroke-width:2"/>
<line x1="30" y1="105" x2="60" y2="120" style="stroke:rgb(0,0,0);stroke-width:2"/>
<line x1="60" y1="120" x2="60" y2="155" style="stroke:rgb(0,0,0);stroke-width:2"/>
<line x1="305" y1="155" x2="275" y2="175" style="stroke:rgb(0,0,0);stroke-width:2"/>
<line x1="275" y1="175" x2="245" y2="155" style="stroke:rgb(0,0,0);stroke-width:2"/>
<line x1="245" y1="155" x2="245" y2="120" style="stroke:rgb(0,0,0);stroke-width:2"/>
<line x1="245" y1="120" x2="275" y2="105" style="stroke:rgb(0,0,0);stroke-width:2"/>
<line x1="275" y1="105" x2="305" y2="120" style="stroke:rgb(0,0,0);stroke-width:2"/>
<line x1="305" y1="120" x2="305" y2="155" style="stroke:rgb(0,0,0);stroke-width:2"/>
<line x1="275" y1="210" x2="245" y2="225" style="stroke:rgb(0,0,0);stroke-width:2"/>
<line x1="245" y1="225" x2="215" y2="210" style="stroke:rgb(0,0,0);stroke-width:2"/>
<line x1="215" y1="210" x2="215" y2="175" style="stroke:rgb(0,0,0);stroke-width:2"/>
<line x1="215" y1="175" x2="245" y2="155" style="stroke:rgb(0,0,0);stroke-width:2"/>
<line x1="245" y1="155" x2="275" y2="175" style="stroke:rgb(0,0,0);stroke-width:2"/>
<line x1="275" y1="175" x2="275" y2="210" style="stroke:rgb(0,0,0);stroke-width:2"/>
<line x1="215" y1="210" x2="185" y2="225" style="stroke:rgb(0,0,0);stroke-width:2"/>
<line x1="185" y1="225" x2="155" y2="210" style="stroke:rgb(0,0,0);stroke-width:2"/>
<line x1="155" y1="210" x2="155" y2="175" style="stroke:rgb(0,0,0);stroke-width:2"/>
<line x1="155" y1="175" x2="185" y2="155" style="stroke:rgb(0,0,0);stroke-width:2"/>
<line x1="185" y1="155" x2="215" y2="175" style="stroke:rgb(0,0,0);stroke-width:2"/>
<line x1="215" y1="175" x2="215" y2="210" style="stroke:rgb(0,0,0);stroke-width:2"/>
<line x1="155" y1="210" x2="120" y2="225" style="stroke:rgb(0,0,0);stroke-width:2"/>
<line x1="120" y1="225" x2="90" y2="210" style="stroke:rgb(0,0,0);stroke-width:2"/>
<line x1="90" y1="210" x2="90" y2="175" style="stroke:rgb(0,0,0);stroke-width:2"/>
<line x1="90" y1="175" x2="120" y2="155" style="stroke:rgb(0,0,0);stroke-width:2"/>
<line x1="120" y1="155" x2="155" y2="175" style="stroke:rgb(0,0,0);stroke-width:2"/>
<line x1="155" y1="175" x2="155" y2="210" style="stroke:rgb(0,0,0);stroke-width:2"/>
<line x1="90" y1="210" x2="60" y2="225" style="stroke:rgb(0,0,0);stroke-width:2"/>
<line x1="60" y1="225" x2="30" y2="210" style="stroke:rgb(0,0,0);stroke-width:2"/>
<line x1="30" y1="210" x2="30" y2="175" style="stroke:rgb(0,0,0);stroke-width:2"/>
<line x1="30" y1="175" x2="60" y2="155" style="stroke:rgb(0,0,0);stroke-width:2"/>
<line x1="60" y1="155" x2="90" y2="175" style="stroke:rgb(0,0,0);stroke-width:2"/>
<line x1="90" y1="175" x2="90" y2="210" style="stroke:rgb(0,0,0);stroke-width:2"/>
<line x1="60" y1="260" x2="30" y2="280" style="stroke:rgb(0,0,0);stroke-width:2"/>
<line x1="30" y1="280" x2="0" y2="260" style="stroke:rgb(0,0,0);stroke-width:2"/>
<line x1="0" y1="260" x2="0" y2="225" style="stroke:rgb(0,0,0);stroke-width:2"/>
<line x1="0" y1="225" x2="30" y2="210" style="stroke:rgb(0,0,0);stroke-width:2"/>
<line x1="30" y1="210" x2="60" y2="225" style="stroke:rgb(0,0,0);stroke-width:2"/>
<line x1="60" y1="225" x2="60" y2="260" style="stroke:rgb(0,0,0);stroke-width:2"/>
<line x1="185" y1="260" x2="155" y2="280" style="stroke:rgb(0,0,0);stroke-width:2"/>
<line x1="155" y1="280" x2="120" y2="260" style="stroke:rgb(0,0,0);stroke-width:2"/>
<line x1="120" y1="260" x2="120" y2="225" style="stroke:rgb(0,0,0);stroke-width:2"/>
<line x1="120" y1="225" x2="155" y2="210" style="stroke:rgb(0,0,0);stroke-width:2"/>
<line x1="155" y1="210" x2="185" y2="225" style="stroke:rgb(0,0,0);stroke-width:2"/>
<line x1="185" y1="225" x2="185" y2="260" style="stroke:rgb(0,0,0);stroke-width:2"/>
<line x1="305" y1="260" x2="275" y2="280" style="stroke:rgb(0,0,0);stroke-width:2"/>
<line x1="275" y1="280" x2="245" y2="260" style="stroke:rgb(0,0,0);stroke-width:2"/>
<line x1="245" y1="260" x2="245" y2="225" style="stroke:rgb(0,0,0);stroke-width:2"/>
<line x1="245" y1="225" x2="275" y2="210" style="stroke:rgb(0,0,0);stroke-width:2"/>
<line x1="275" y1="210" x2="305" y2="225" style="stroke:rgb(0,0,0);stroke-width:2"/>
<line x1="305" y1="225" x2="305" y2="260" style="stroke:rgb(0,0,0);stroke-width:2"/>
</svg>
