<svg width="790" height="725">
<rect width="100%" height="100%" fill="white"/>
<line x1="265" y1="680" x2="330" y2="680" style="stroke:rgb(0,0,0);stroke-width:2"/>
<line x1="330" y1="680" x2="315" y2="725" style="stroke:rgb(0,0,0);stroke-width:2"/>
<line x1="315" y1="725" x2="235" y2="725" style="stroke:rgb(0,0,0);stroke-width:2"/>
<line x1="235" y1="725" x2="225" y2="690" style="stroke:rgb(0,0,0);stroke-width:2"/>
<line x1="225" y1="690" x2="265" y2="680" style="stroke:rgb(0,0,0);stroke-width:2"/>
<line x1="265" y1="680" x2="285" y2="510" style="stroke:rgb(0,0,0);stroke-width:2"/>
<line x1="505" y1="505" x2="470" y2="695" style="stroke:rgb(0,0,0);stroke-width:2"/>
<line x1="470" y1="695" x2="440" y2="700" style="stroke:rgb(0,0,0);stroke-width:2"/>
<line x1="440" y1="700" x2="450" y2="725" style="stroke:rgb(0,0,0);stroke-width:2"/>
<line x1="450" y1="725" x2="515" y2="725" style="stroke:rgb(0,0,0);stroke-width:2"/>
<line x1="515" y1="725" x2="520" y2="685" style="stroke:rgb(0,0,0);stroke-width:2"/>
<line x1="520" y1="685" x2="470" y2="695" style="stroke:rgb(0,0,0);stroke-width:2"/>
<line x1="285" y1="510" x2="505" y2="505" style="stroke:rgb(0,0,0);stroke-width:2"/>
<line x1="505" y1="505" x2="620" y2="390" style="stroke:rgb(0,0,0);stroke-width:2"/>
<line x1="620" y1="390" x2="620" y2="315" style="stroke:rgb(0,0,0);stroke-width:2"/>
<line x1="620" y1="315" x2="500" y2="170" style="stroke:rgb(0,0,0);stroke-width:2"/>
<line x1="500" y1="170" x2="405" y2="135" style="stroke:rgb(0,0,0);stroke-width:2"/>
<line x1="405" y1="135" x2="385" y2="130" style="stroke:rgb(0,0,0);stroke-width:2"/>
<line x1="385" y1="130" x2="300" y2="125" style="stroke:rgb(0,0,0);stroke-width:2"/>
<line x1="300" y1="125" x2="160" y2="310" style="stroke:rgb(0,0,0);stroke-width:2"/>
<line x1="160" y1="310" x2="180" y2="455" style="stroke:rgb(0,0,0);stroke-width:2"/>
<line x1="180" y1="455" x2="205" y2="475" style="stroke:rgb(0,0,0);stroke-width:2"/>
<line x1="205" y1="475" x2="285" y2="510" style="stroke:rgb(0,0,0);stroke-width:2"/>
<line x1="205" y1="475" x2="120" y2="555" style="stroke:rgb(0,0,0);stroke-width:2"/>
<line x1="120" y1="555" x2="105" y2="540" style="stroke:rgb(0,0,0);stroke-width:2"/>
<line x1="105" y1="540" x2="180" y2="455" style="stroke:rgb(0,0,0);stroke-width:2"/>
<line x1="120" y1="555" x2="60" y2="620" style="stroke:rgb(0,0,0);stroke-width:2"/>
<line x1="60" y1="620" x2="40" y2="605" style="stroke:rgb(0,0,0);stroke-width:2"/>
<line x1="40" y1="605" x2="95" y2="570" style="stroke:rgb(0,0,0);stroke-width:2"/>
<line x1="95" y1="570" x2="80" y2="560" style="stroke:rgb(0,0,0);stroke-width:2"/>
<line x1="80" y1="560" x2="35" y2="580" style="stroke:rgb(0,0,0);stroke-width:2"/>
<line x1="35" y1="580" x2="25" y2="555" style="stroke:rgb(0,0,0);stroke-width:2"/>
<line x1="25" y1="555" x2="105" y2="540" style="stroke:rgb(0,0,0);stroke-width:2"/>
<line x1="80" y1="560" x2="105" y2="540" style="stroke:rgb(0,0,0);stroke-width:2"/>
<line x1="95" y1="570" x2="120" y2="555" style="stroke:rgb(0,0,0);stroke-width:2"/>
<line x1="160" y1="310" x2="60" y2="395" style="stroke:rgb(0,0,0);stroke-width:2"/>
<line x1="60" y1="395" x2="90" y2="435" style="stroke:rgb(0,0,0);stroke-width:2"/>
<line x1="90" y1="435" x2="35" y2="480" style="stroke:rgb(0,0,0);stroke-width:2"/>
<line x1="35" y1="480" x2="0" y2="430" style="stroke:rgb(0,0,0);stroke-width:2"/>
<line x1="0" y1="430" x2="40" y2="365" style="stroke:rgb(0,0,0);stroke-width:2"/>
<line x1="40" y1="365" x2="60" y2="395" style="stroke:rgb(0,0,0);stroke-width:2"/>
<line x1="300" y1="125" x2="300" y2="55" style="stroke:rgb(0,0,0);stroke-width:2"/>
<line x1="300" y1="55" x2="335" y2="30" style="stroke:rgb(0,0,0);stroke-width:2"/>
<line x1="335" y1="30" x2="300" y2="0" style="stroke:rgb(0,0,0);stroke-width:2"/>
<line x1="300" y1="0" x2="265" y2="25" style="stroke:rgb(0,0,0);stroke-width:2"/>
<line x1="265" y1="25" x2="300" y2="55" style="stroke:rgb(0,0,0);stroke-width:2"/>
<line x1="385" y1="130" x2="385" y2="85" style="stroke:rgb(0,0,0);stroke-width:2"/>
<line x1="385" y1="85" x2="405" y2="85" style="stroke:rgb(0,0,0);stroke-width:2"/>
<line x1="405" y1="85" x2="405" y2="135" style="stroke:rgb(0,0,0);stroke-width:2"/>
<line x1="405" y1="85" x2="420" y2="80" style="stroke:rgb(0,0,0);stroke-width:2"/>
<line x1="420" y1="80" x2="370" y2="70" style="stroke:rgb(0,0,0);stroke-width:2"/>
<line x1="370" y1="70" x2="365" y2="85" style="stroke:rgb(0,0,0);stroke-width:2"/>
<line x1="365" y1="85" x2="385" y2="85" style="stroke:rgb(0,0,0);stroke-width:2"/>
<line x1="500" y1="170" x2="510" y2="75" style="stroke:rgb(0,0,0);stroke-width:2"/>
<line x1="510" y1="75" x2="555" y2="65" style="stroke:rgb(0,0,0);stroke-width:2"/>
<line x1="555" y1="65" x2="525" y2="25" style="stroke:rgb(0,0,0);stroke-width:2"/>
<line x1="525" y1="25" x2="485" y2="35" style="stroke:rgb(0,0,0);stroke-width:2"/>
<line x1="485" y1="35" x2="510" y2="75" style="stroke:rgb(0,0,0);stroke-width:2"/>
<line x1="620" y1="390" x2="660" y2="420" style="stroke:rgb(0,0,0);stroke-width:2"/>
<line x1="660" y1="420" x2="720" y2="410" style="stroke:rgb(0,0,0);stroke-width:2"/>
<line x1="720" y1="410" x2="735" y2="390" style="stroke:rgb(0,0,0);stroke-width:2"/>
<line x1="735" y1="390" x2="755" y2="410" style="stroke:rgb(0,0,0);stroke-width:2"/>
<line x1="755" y1="410" x2="740" y2="425" style="stroke:rgb(0,0,0);stroke-width:2"/>
<line x1="740" y1="425" x2="720" y2="410" style="stroke:rgb(0,0,0);stroke-width:2"/>
<line x1="685" y1="455" x2="685" y2="485" style="stroke:rgb(0,0,0);stroke-width:2"/>
<line x1="685" y1="485" x2="715" y2="485" style="stroke:rgb(0,0,0);stroke-width:2"/>
<line x1="715" y1="485" x2="715" y2="455" style="stroke:rgb(0,0,0);stroke-width:2"/>
<line x1="715" y1="455" x2="685" y2="455" style="stroke:rgb(0,0,0);stroke-width:2"/>
<line x1="685" y1="455" x2="660" y2="420" style="stroke:rgb(0,0,0);stroke-width:2"/>
<line x1="660" y1="420" x2="640" y2="490" style="stroke:rgb(0,0,0);stroke-width:2"/>
<line x1="640" y1="490" x2="660" y2="490" style="stroke:rgb(0,0,0);stroke-width:2"/>
<line x1="660" y1="490" x2="660" y2="420" style="stroke:rgb(0,0,0);stroke-width:2"/>
<line x1="620" y1="315" x2="685" y2="200" style="stroke:rgb(0,0,0);stroke-width:2"/>
<line x1="685" y1="200" x2="735" y2="205" style="stroke:rgb(0,0,0);stroke-width:2"/>
<line x1="735" y1="205" x2="790" y2="145" style="stroke:rgb(0,0,0);stroke-width:2"/>
<line x1="790" y1="145" x2="765" y2="130" style="stroke:rgb(0,0,0);stroke-width:2"/>
<line x1="765" y1="130" x2="695" y2="180" style="stroke:rgb(0,0,0);stroke-width:2"/>
<line x1="695" y1="180" x2="660" y2="95" style="stroke:rgb(0,0,0);stroke-width:2"/>
<line x1="660" y1="95" x2="620" y2="90" style="stroke:rgb(0,0,0);stroke-width:2"/>
<line x1="620" y1="90" x2="645" y2="180" style="stroke:rgb(0,0,0);stroke-width:2"/>
<line x1="645" y1="180" x2="685" y2="200" style="stroke:rgb(0,0,0);stroke-width:2"/>
<line x1="685" y1="200" x2="695" y2="180" style="stroke:rgb(0,0,0);stroke-width:2"/>
<line x1="295" y1="240" x2="550" y2="255" style="stroke:rgb(0,0,0);stroke-width:2"/>
<line x1="550" y1="255" x2="565" y2="400" style="stroke:rgb(0,0,0);stroke-width:2"/>
<line x1="565" y1="400" x2="275" y2="425" style="stroke:rgb(0,0,0);stroke-width:2"/>
<line x1="275" y1="425" x2="295" y2="240" style="stroke:rgb(0,0,0);stroke-width:2"/>
<line x1="340" y1="335" x2="370" y2="335" style="stroke:rgb(0,0,0);stroke-width:2"/>
<line x1="370" y1="335" x2="370" y2="375" style="stroke:rgb(0,0,0);stroke-width:2"/>
<line x1="370" y1="375" x2="340" y2="375" style="stroke:rgb(0,0,0);stroke-width:2"/>
<line x1="340" y1="375" x2="340" y2="335" style="stroke:rgb(0,0,0);stroke-width:2"/>
<line x1="370" y1="335" x2="400" y2="335" style="stroke:rgb(0,0,0);stroke-width:2"/>
<line x1="400" y1="335" x2="400" y2="375" style="stroke:rgb(0,0,0);stroke-width:2"/>
<line x1="400" y1="375" x2="370" y2="375" style="stroke:rgb(0,0,0);stroke-width:2"/>
<line x1="400" y1="335" x2="430" y2="335" style="stroke:rgb(0,0,0);stroke-width:2"/>
<line x1="430" y1="335" x2="430" y2="375" style="stroke:rgb(0,0,0);stroke-width:2"/>
<line x1="430" y1="375" x2="400" y2="375" style="stroke:rgb(0,0,0);stroke-width:2"/>
<line x1="430" y1="335" x2="460" y2="335" style="stroke:rgb(0,0,0);stroke-width:2"/>
<line x1="460" y1="335" x2="460" y2="370" style="stroke:rgb(0,0,0);stroke-width:2"/>
<line x1="460" y1="370" x2="430" y2="375" style="stroke:rgb(0,0,0);stroke-width:2"/>
<line x1="460" y1="335" x2="490" y2="335" style="stroke:rgb(0,0,0);stroke-width:2"/>
<line x1="490" y1="335" x2="490" y2="365" style="stroke:rgb(0,0,0);stroke-width:2"/>
<line x1="490" y1="365" x2="460" y2="370" style="stroke:rgb(0,0,0);stroke-width:2"/>
<line x1="490" y1="335" x2="520" y2="335" style="stroke:rgb(0,0,0);stroke-width:2"/>
<line x1="520" y1="335" x2="520" y2="360" style="stroke:rgb(0,0,0);stroke-width:2"/>
<line x1="520" y1="360" x2="490" y2="365" style="stroke:rgb(0,0,0);stroke-width:2"/>
<line x1="340" y1="375" x2="275" y2="425" style="stroke:rgb(0,0,0);stroke-width:2"/>
<line x1="520" y1="360" x2="565" y2="400" style="stroke:rgb(0,0,0);stroke-width:2"/>
<line x1="380" y1="290" x2="355" y2="250" style="stroke:rgb(0,0,0);stroke-width:2"/>
<line x1="355" y1="250" x2="320" y2="285" style="stroke:rgb(0,0,0);stroke-width:2"/>
<line x1="320" y1="285" x2="350" y2="320" style="stroke:rgb(0,0,0);stroke-width:2"/>
<line x1="350" y1="320" x2="380" y2="290" style="stroke:rgb(0,0,0);stroke-width:2"/>
<line x1="380" y1="290" x2="405" y2="295" style="stroke:rgb(0,0,0);stroke-width:2"/>
<line x1="405" y1="295" x2="420" y2="280" style="stroke:rgb(0,0,0);stroke-width:2"/>
<line x1="420" y1="280" x2="435" y2="295" style="stroke:rgb(0,0,0);stroke-width:2"/>
<line x1="435" y1="295" x2="420" y2="315" style="stroke:rgb(0,0,0);stroke-width:2"/>
<line x1="420" y1="315" x2="405" y2="295" style="stroke:rgb(0,0,0);stroke-width:2"/>
<line x1="435" y1="295" x2="465" y2="290" style="stroke:rgb(0,0,0);stroke-width:2"/>
<line x1="465" y1="290" x2="490" y2="260" style="stroke:rgb(0,0,0);stroke-width:2"/>
<line x1="490" y1="260" x2="510" y2="290" style="stroke:rgb(0,0,0);stroke-width:2"/>
<line x1="510" y1="290" x2="485" y2="315" style="stroke:rgb(0,0,0);stroke-width:2"/>
<line x1="485" y1="315" x2="465" y2="290" style="stroke:rgb(0,0,0);stroke-width:2"/>
<line x1="510" y1="290" x2="550" y2="255" style="stroke:rgb(0,0,0);stroke-width:2"/>
<line x1="320" y1="285" x2="295" y2="240" style="stroke:rgb(0,0,0);stroke-width:2"/>
<line x1="420" y1="315" x2="430" y2="335" style="stroke:rgb(0,0,0);stroke-width:2"/>
<line x1="565" y1="400" x2="620" y2="390" style="stroke:rgb(0,0,0);stroke-width:2"/>
<line x1="275" y1="425" x2="180" y2="455" style="stroke:rgb(0,0,0);stroke-width:2"/>
<line x1="295" y1="240" x2="300" y2="125" style="stroke:rgb(0,0,0);stroke-width:2"/>
<line x1="550" y1="255" x2="500" y2="170" style="stroke:rgb(0,0,0);stroke-width:2"/>
</svg>
